<svg width="960" height="960" viewBox="0 0 960 960" fill="none" xmlns="http://www.w3.org/2000/svg">
<g clip-path="url(#clip0_36_2740)">
<path fill-rule="evenodd" clip-rule="evenodd" d="M509.039 363.268C508.534 363.469 508.001 363.587 507.459 363.618C506.042 363.584 504.652 363.221 503.399 362.558C502.369 362.108 501.349 361.638 500.329 361.148C499.409 360.708 498.359 360.048 498.329 359.028C498.349 358.608 498.461 358.198 498.659 357.828C499.504 355.591 500.669 353.489 502.119 351.588C503.567 349.907 505.427 348.63 507.516 347.884C509.606 347.137 511.853 346.945 514.039 347.328C512.99 346.148 512.12 344.821 511.459 343.388C510.734 341.298 510.548 339.059 510.919 336.878C511.009 335.893 511.217 334.923 511.539 333.988C512.859 330.508 516.759 328.478 520.479 328.508C521.384 328.48 522.284 328.661 523.109 329.038C524.305 329.803 525.273 330.878 525.909 332.148C526.553 333.06 527.002 334.094 527.229 335.188L527.409 335.178C527.609 331.318 528.509 327.358 530.849 324.268C531.668 323.197 532.638 322.25 533.729 321.458C534.978 320.504 536.459 319.9 538.019 319.708C538.795 319.615 539.582 319.695 540.324 319.942C541.066 320.189 541.743 320.598 542.309 321.138C543.639 322.488 543.939 324.528 543.999 326.428C544.066 328.201 543.992 329.976 543.779 331.738C544.394 330.384 545.187 329.12 546.139 327.978C547.726 325.8 549.627 323.87 551.779 322.248C553.948 320.618 556.607 319.775 559.319 319.858C559.861 319.87 560.394 320.003 560.879 320.248C562.139 320.968 562.379 322.678 562.319 324.128C562.21 326.474 561.678 328.781 560.749 330.938C565.219 327.438 571.399 326.418 576.969 327.598C578.54 327.861 580.027 328.491 581.309 329.438C581.94 329.92 582.44 330.552 582.765 331.277C583.09 332.001 583.229 332.796 583.169 333.588C582.929 335.398 581.429 336.748 579.969 337.838C576.7 340.289 573.164 342.362 569.429 344.018C572.626 343.179 575.925 342.796 579.229 342.878C581.999 342.948 585.349 343.818 586.089 346.498C586.759 348.908 584.809 351.288 582.649 352.578C577.619 355.588 571.359 355.248 565.499 354.738L565.489 354.858C565.529 358.198 565.529 361.548 565.479 364.888C576.299 364.371 587.119 363.858 597.939 363.348C602.079 363.148 606.819 363.198 609.689 366.088C610.518 361.729 610.87 357.293 610.739 352.858C610.097 336.838 603.277 321.688 591.709 310.588C586.514 305.752 580.732 301.589 574.498 298.198C566.759 293.858 558.399 290.308 549.579 289.348C543.634 288.782 537.636 289.156 531.808 290.458C509.928 295.008 490.229 309.588 479.959 329.438C473.097 342.873 470.561 358.103 472.699 373.038C473.199 372.868 473.708 372.718 474.218 372.568C483.449 369.873 493.022 368.532 502.639 368.588L502.988 368.898C504.769 366.79 506.84 364.945 509.139 363.418L509.039 363.268ZM557.022 302.255C555.656 302.057 554.388 303.005 554.19 304.371C553.992 305.738 554.939 307.006 556.306 307.204C564.813 308.436 572.836 311.922 579.541 317.301C586.247 322.68 591.391 329.755 594.44 337.792C594.929 339.083 596.373 339.733 597.664 339.243C598.955 338.753 599.604 337.31 599.115 336.019C595.749 327.147 590.071 319.338 582.67 313.401C575.268 307.464 566.413 303.615 557.022 302.255Z" fill="white"/>
<path fill-rule="evenodd" clip-rule="evenodd" d="M340.331 397.49C344.865 390.659 347.272 382.637 347.248 374.438C347.231 368.994 346.143 363.606 344.044 358.583C341.946 353.56 338.879 348.999 335.018 345.161C331.156 341.323 326.577 338.283 321.541 336.215C316.506 334.147 311.112 333.091 305.668 333.108C297.469 333.132 289.461 335.588 282.658 340.164C275.854 344.739 270.561 351.23 267.446 358.814C264.331 366.398 263.535 374.736 265.159 382.773C266.783 390.809 270.753 398.184 276.568 403.964C282.383 409.744 289.782 413.67 297.828 415.245C305.874 416.82 314.207 415.974 321.772 412.814C329.338 409.653 335.796 404.321 340.331 397.49ZM321.833 342.344C320.672 341.597 319.125 341.932 318.377 343.093C317.63 344.254 317.965 345.801 319.126 346.549C324.754 350.172 329.792 354.541 333.045 360.01C336.296 365.479 337.551 372.108 335.688 377.825C335.261 379.138 335.978 380.549 337.291 380.977C338.604 381.404 340.015 380.687 340.443 379.374C342.854 371.973 341.142 363.846 337.342 357.455C333.543 351.064 327.805 346.189 321.833 342.344Z" fill="white"/>
<path fill-rule="evenodd" clip-rule="evenodd" d="M387.347 275.378L388.107 275.168C366.107 194.278 332.767 141.448 306.767 141.528C278.427 141.618 241.737 204.648 220.737 298.278C233.107 288.388 247.827 281.778 262.927 276.958C303.333 264.148 346.629 263.598 387.347 275.378ZM335.437 169.682C334.599 168.584 333.03 168.374 331.933 169.213C330.835 170.051 330.625 171.62 331.464 172.717C346.238 192.058 356.714 214.328 362.194 238.041C362.505 239.386 363.848 240.225 365.193 239.914C366.538 239.603 367.377 238.261 367.066 236.915C361.426 212.509 350.643 189.588 335.437 169.682Z" fill="white"/>
<path d="M762.848 99.4082L763.528 99.8982C761.428 150.768 760.128 201.918 758.798 253.098L757.348 253.058C736.518 271.978 708.918 282.728 680.888 285.298C652.858 287.868 624.438 282.588 598.188 272.418C597.594 272.323 597.027 272.1 596.528 271.764C596.029 271.428 595.609 270.987 595.298 270.472C594.987 269.957 594.792 269.38 594.726 268.782C594.66 268.184 594.726 267.578 594.918 267.008C599.818 219.418 602.835 171.688 603.968 123.818C635.463 136.604 670.001 139.933 703.358 133.398C726.329 128.848 749.519 118.658 762.848 99.4082Z" fill="white"/>
<path d="M715.288 416.8V416.84C713.125 432.993 712.85 449.343 714.468 465.56L714.488 465.85C711.538 466.1 708.598 466.35 705.648 466.61L705.568 465.74C703.322 449.72 703.724 433.439 706.758 417.55L715.288 416.8Z" fill="white"/>
<path d="M671.427 420.828C671.509 427.478 671.585 434.134 671.657 440.798C671.73 441.141 671.713 441.497 671.61 441.831C671.506 442.166 671.319 442.469 671.066 442.712C670.812 442.954 670.501 443.128 670.162 443.216C669.823 443.305 669.467 443.305 669.127 443.218L650.018 444.328C649.685 439.698 649.358 435.068 649.038 430.438C649.051 430.246 648.991 430.056 648.868 429.908C648.753 429.799 648.606 429.732 648.448 429.718C646.018 429.228 643.518 429.778 641.098 430.338C639.288 430.748 637.478 431.161 635.668 431.578L635.568 431.568C635.748 428.968 636.015 426.371 636.368 423.778C648.048 422.738 659.732 421.704 671.418 420.678L671.427 420.828Z" fill="white"/>
<path d="M630.958 794.178C631.777 796.638 632.123 799.23 631.978 801.818C631.929 806.723 631.457 811.615 630.568 816.438C630.058 819.208 629.308 822.148 627.178 823.998C625.048 825.848 622.078 826.178 619.288 826.438C607.238 827.568 595.158 828.638 583.068 828.168C579.028 828.018 574.898 827.658 571.208 825.998C568.59 824.698 566.167 823.039 564.008 821.068C558.044 815.984 552.555 810.367 547.608 804.288C546.228 802.746 545.113 800.985 544.308 799.078C543.685 797.054 543.378 794.946 543.399 792.828L542.618 773.298C550.788 781.138 563.108 783.748 574.449 782.518C586.368 781.238 597.539 776.308 608.498 771.438L608.928 771.108C610.334 772.969 611.882 774.717 613.558 776.338C617.498 780.208 621.899 783.578 625.878 787.398C628.038 789.268 629.771 791.58 630.958 794.178V794.178Z" fill="#171717"/>
<path d="M614.627 473.288C615.818 488.068 615.787 502.918 615.648 517.748C615.488 536.338 615.148 555.068 611.168 573.228C610.947 574.611 610.469 575.941 609.758 577.148C607.648 580.268 603.298 580.598 599.518 580.548C596.998 545.158 594.298 509.768 591.608 474.378L592.228 474.328C599.698 473.988 607.165 473.641 614.627 473.288Z" fill="#171717"/>
<path d="M612.858 425.048L612.928 425.848C597.438 427.218 581.951 428.585 566.468 429.948C566.518 429.728 566.558 429.498 566.588 429.278C566.868 427.398 567.068 425.511 567.188 423.618C567.373 422.317 567.218 420.991 566.738 419.768C566.728 419.758 566.728 419.738 566.718 419.728C579.188 413.308 590.368 404.188 598.378 392.688C603.969 384.711 607.822 375.649 609.688 366.088C609.808 366.208 609.928 366.338 610.038 366.468C612.208 368.998 612.348 372.638 612.378 375.968C612.538 392.328 612.698 408.688 612.858 425.048Z" fill="#171717"/>
<path d="M609.157 741.568C609.407 746.848 609.627 752.118 609.847 757.388C609.747 758.518 608.677 759.408 607.687 760.078C606.537 760.848 605.367 761.578 604.177 762.278C590.426 770.223 574.279 772.963 558.677 769.998C556.557 769.578 554.458 769.058 552.377 768.478C548.812 767.58 545.406 766.14 542.277 764.208C540.151 762.867 538.369 761.045 537.077 758.888C537.317 754.248 537.53 749.605 537.717 744.958L538.027 744.968C559.767 756.948 588.197 755.588 608.697 741.588L609.157 741.568Z" fill="white"/>
<path d="M509.139 363.418L509.039 363.268C508.534 363.469 508.001 363.588 507.459 363.618C506.041 363.584 504.652 363.221 503.399 362.558C502.368 362.108 501.349 361.638 500.329 361.148C499.409 360.708 498.359 360.048 498.329 359.028C498.348 358.609 498.461 358.199 498.659 357.828C499.504 355.592 500.669 353.49 502.119 351.588C503.567 349.907 505.427 348.631 507.516 347.884C509.605 347.138 511.853 346.946 514.039 347.328C512.99 346.149 512.12 344.821 511.459 343.388C510.733 341.298 510.548 339.059 510.919 336.878C511.008 335.894 511.217 334.923 511.539 333.988C512.859 330.508 516.759 328.478 520.479 328.508C521.384 328.481 522.284 328.662 523.109 329.038C524.305 329.804 525.273 330.878 525.909 332.148C526.553 333.06 527.002 334.095 527.229 335.188L527.409 335.178C527.609 331.318 528.509 327.358 530.849 324.268C531.668 323.197 532.638 322.251 533.729 321.458C534.978 320.504 536.459 319.9 538.019 319.708C538.795 319.616 539.582 319.696 540.323 319.943C541.065 320.19 541.742 320.598 542.308 321.138C543.639 322.488 543.938 324.528 543.998 326.428C544.065 328.201 543.992 329.977 543.779 331.738C544.393 330.385 545.187 329.12 546.139 327.978C547.726 325.801 549.627 323.87 551.779 322.248C553.947 320.618 556.607 319.775 559.319 319.858C559.861 319.87 560.394 320.003 560.878 320.248C562.139 320.968 562.378 322.678 562.319 324.128C562.209 326.474 561.677 328.781 560.748 330.938C565.218 327.438 571.399 326.418 576.968 327.598C578.539 327.862 580.026 328.492 581.308 329.438C581.939 329.92 582.439 330.553 582.764 331.277C583.089 332.002 583.228 332.796 583.168 333.588C582.928 335.398 581.428 336.748 579.968 337.838C576.699 340.29 573.163 342.363 569.428 344.018C569.178 344.078 568.928 344.148 568.678 344.218C568.648 344.268 568.618 344.328 568.588 344.388C568.868 344.268 569.148 344.148 569.428 344.018C572.625 343.18 575.924 342.796 579.228 342.878C581.998 342.948 585.348 343.818 586.088 346.498C586.758 348.908 584.808 351.288 582.648 352.578C577.618 355.588 571.358 355.248 565.498 354.738C565.328 354.718 565.158 354.708 564.988 354.688C558.608 354.108 552.228 353.532 545.848 352.958C542.464 352.527 539.042 352.48 535.648 352.818C532.227 353.174 529.031 354.688 526.588 357.108C522.588 361.418 522.578 367.968 522.798 373.838C523.131 382.388 523.461 390.942 523.788 399.498L523.158 399.518C522.348 401.378 521.548 403.248 520.738 405.108C519.698 407.508 518.398 410.148 515.918 410.978C515.263 411.233 514.544 411.273 513.865 411.094C513.186 410.914 512.581 410.523 512.138 409.978C511.903 409.605 511.731 409.197 511.628 408.768C510.887 405.543 510.99 402.182 511.928 399.008C512.678 395.978 513.758 393.038 514.428 389.988L514.008 389.898C512.798 392.928 511.594 395.958 510.398 398.988C509.568 401.068 508.688 403.228 507.038 404.728C506.699 405.129 506.261 405.435 505.767 405.613C505.274 405.791 504.742 405.837 504.225 405.745C503.708 405.652 503.225 405.426 502.823 405.088C502.422 404.75 502.116 404.312 501.938 403.818C499.818 400.188 501.098 395.568 502.788 391.718C504.787 387.171 507.282 382.858 510.228 378.858L509.998 378.688C507.488 381.448 503.678 383.408 500.068 382.498C499.399 382.367 498.782 382.048 498.288 381.578C497.108 380.358 497.538 378.338 498.188 376.768C500.433 371.331 504.245 366.684 509.139 363.418V363.418Z" fill="#171717"/>
<path d="M515.568 554.7C517.239 528.809 516.476 502.818 513.287 477.07C512.827 473.42 512.327 469.71 512.847 466.06C515.04 465.385 517.307 464.975 519.597 464.84C523.197 464.57 526.877 464.72 530.507 464.55C530.887 464.53 531.267 464.51 531.647 464.48C534.557 464.28 537.457 463.81 540.347 463.37C544.537 462.73 548.734 462.146 552.937 461.62C558.127 460.96 563.327 460.393 568.537 459.92C570.747 459.71 572.967 459.52 575.177 459.35L576.258 460.11C580.066 490.552 581.23 521.267 579.737 551.91C579.377 551.92 579.027 551.93 578.667 551.95C557.617 552.65 536.581 553.646 515.557 554.94C515.566 554.86 515.57 554.78 515.568 554.7V554.7ZM570.227 475.28C570.285 474.656 570.217 474.027 570.027 473.43C569.823 472.343 569.445 471.296 568.907 470.33C568.637 469.848 568.257 469.437 567.799 469.129C567.34 468.822 566.815 468.627 566.267 468.56L566.007 468.97C564.474 469.199 563.054 469.914 561.957 471.01C561.417 471.561 561.017 472.233 560.791 472.971C560.564 473.709 560.519 474.49 560.657 475.25C560.869 476.055 561.297 476.787 561.894 477.366C562.492 477.946 563.236 478.352 564.047 478.54C564.863 478.711 565.706 478.702 566.518 478.514C567.329 478.326 568.09 477.962 568.747 477.45C569.505 476.946 570.036 476.167 570.227 475.278V475.28ZM554.518 478.03C555.282 477.214 555.797 476.197 556.001 475.098C556.205 473.999 556.089 472.865 555.668 471.83C555.483 471.33 555.156 470.896 554.728 470.58C554.318 470.32 553.818 470.23 553.418 469.98C552.968 469.7 552.668 469.23 552.238 468.92C552.045 468.743 551.794 468.643 551.532 468.639C551.27 468.636 551.016 468.728 550.818 468.9L549.878 469.08C549.158 469.117 548.462 469.346 547.859 469.741C547.256 470.136 546.769 470.684 546.448 471.33C545.79 472.725 545.591 474.294 545.878 475.81C545.947 476.79 546.321 477.723 546.948 478.48C547.344 478.882 547.826 479.19 548.358 479.38C549.407 479.765 550.544 479.843 551.636 479.603C552.727 479.364 553.727 478.817 554.518 478.028V478.03Z" fill="#171717"/>
<path d="M563.417 417.838C560.504 417.079 557.54 416.531 554.547 416.198C552.667 415.968 550.777 415.828 548.877 415.748C548.656 412.14 548.75 408.519 549.158 404.928C554.348 405.388 559.238 401.658 561.668 397.018C564.138 392.318 564.598 386.838 564.898 381.538C565.208 375.998 565.408 370.438 565.478 364.888C576.298 364.378 587.118 363.864 597.938 363.348C602.078 363.148 606.818 363.198 609.688 366.088C607.823 375.648 603.97 384.711 598.378 392.688C590.368 404.188 579.188 413.308 566.718 419.728C566.458 419.135 566.002 418.651 565.427 418.354C564.852 418.057 564.192 417.967 563.558 418.098L563.417 417.838Z" fill="white"/>
<path d="M512.089 423.608C512.019 426.258 511.938 428.898 511.869 431.548C511.845 431.978 511.882 432.409 511.979 432.828C501.859 433.438 492.209 437.068 482.949 441.258C481.979 441.698 481.009 442.148 480.049 442.598C473.775 445.401 467.736 448.702 461.989 452.468L461.819 452.218C459.289 430.568 457.959 408.508 461.879 387.058C462.579 383.198 463.589 379.128 466.429 376.408C468.236 374.824 470.38 373.671 472.699 373.038C473.719 380.344 475.911 387.439 479.188 394.048C485.808 407.338 497.478 418.748 511.969 422.008L512.199 422.048C512.128 422.558 512.108 423.1 512.089 423.608Z" fill="#171717"/>
<path d="M474.217 372.568C483.448 369.873 493.022 368.532 502.638 368.588L502.987 368.898C500.984 371.252 499.364 373.908 498.187 376.768C497.537 378.338 497.107 380.358 498.287 381.578C498.781 382.047 499.399 382.366 500.068 382.498C503.677 383.408 507.487 381.448 509.997 378.688L510.227 378.858C507.281 382.857 504.786 387.17 502.787 391.718C501.097 395.568 499.818 400.188 501.937 403.818C502.116 404.311 502.422 404.749 502.823 405.087C503.225 405.425 503.708 405.652 504.225 405.744C504.741 405.836 505.273 405.791 505.767 405.612C506.261 405.434 506.699 405.129 507.037 404.728C508.687 403.228 509.568 401.068 510.397 398.988C511.597 395.958 512.801 392.928 514.007 389.898L514.427 389.988C513.757 393.038 512.677 395.978 511.927 399.008C510.99 402.181 510.887 405.543 511.627 408.768C511.73 409.196 511.902 409.605 512.137 409.978C512.58 410.523 513.185 410.913 513.864 411.093C514.544 411.273 515.262 411.232 515.917 410.978C518.397 410.148 519.698 407.508 520.737 405.108C521.547 403.248 522.347 401.378 523.157 399.518L523.787 399.498L524.477 417.288C522.837 417.498 521.207 417.728 519.587 417.968C518.597 418.108 517.607 418.258 516.627 418.398C515.351 418.446 514.127 418.917 513.147 419.738C512.601 420.392 512.269 421.198 512.197 422.048L511.967 422.008C497.477 418.748 485.807 407.338 479.187 394.048C475.909 387.438 473.718 380.344 472.697 373.038C473.199 372.868 473.707 372.718 474.217 372.568Z" fill="white"/>
<path d="M508.747 560.238C511.028 558.388 513.287 556.538 515.568 554.698C515.57 554.778 515.567 554.859 515.557 554.938C536.578 553.648 557.615 552.652 578.668 551.948C576.949 555.458 573.388 557.788 569.638 558.908C565.838 560.038 561.808 560.088 557.838 560.128C541.468 560.288 525.098 560.452 508.728 560.618V560.238H508.747Z" fill="#171717"/>
<path d="M496.148 726.788C491.888 739.338 486.438 751.508 479.108 762.388C474.028 769.938 465.888 776.438 456.558 777.218C446.828 778.028 439.958 772.568 436.328 763.948C434.407 759.254 432.794 754.441 431.498 749.538L432.238 749.328C442.258 741.768 453.258 736.768 464.258 728.768C466.258 726.768 469.258 725.768 468.428 722.518L468.118 721.578C480.228 717.632 491.528 711.539 501.478 703.588C502.018 703.148 502.548 702.708 503.078 702.258C501.138 710.438 498.888 718.688 496.148 726.788Z" fill="white"/>
<path d="M495.699 493.6L497.279 493.67C495.809 525.21 493.959 556.84 488.889 587.92L488.589 587.87L476.009 588.26C475.37 588.339 474.721 588.245 474.129 587.99C473.119 587.43 472.889 586.11 472.779 584.96C471.059 567.2 471.829 549.29 471.459 531.45C471.319 524.36 470.989 517.29 470.259 510.24L470.118 510.1C477.138 502.555 485.931 496.883 495.699 493.6V493.6Z" fill="#171717"/>
<path d="M482.999 441.368C483.899 444.098 484.8 446.818 485.71 449.548L485.259 449.698C480.72 451.293 476.444 453.555 472.569 456.408C472.477 456.465 472.404 456.549 472.359 456.648C472.329 456.761 472.34 456.882 472.389 456.988C473.759 461.288 475.133 465.584 476.509 469.878L476.549 469.958C471.189 472.618 465.729 475.044 460.169 477.238C458.129 471.258 456.089 465.281 454.049 459.308L453.729 458.968C455.879 457.016 458.14 455.19 460.499 453.498C460.989 453.148 461.489 452.798 461.989 452.468C467.737 448.702 473.776 445.401 480.049 442.598C481.009 442.148 481.979 441.698 482.949 441.258L482.999 441.368Z" fill="white"/>
<path d="M405.299 656.508C404.199 657.248 403.129 658.038 402.079 658.868L399.769 659.288C397.344 659.632 394.874 659.461 392.519 658.788C390.889 658.398 389.269 657.888 387.649 657.438C399.449 614.688 407.519 562.188 410.369 504.448L412.01 504.528C416.161 504.941 420.279 505.626 424.339 506.578L424.849 506.738C422.67 513.368 420.89 520.148 419.339 526.958C418.806 529.288 418.306 531.628 417.839 533.978C417.179 537.218 416.589 540.478 416.07 543.738C413.507 558.634 412.825 573.793 414.04 588.858C414.42 593.098 415.089 597.558 417.82 600.818C422.14 605.998 429.849 606.298 436.589 606.168C440.129 606.108 443.809 606.008 446.98 604.428C448.293 603.759 449.48 602.87 450.49 601.798C460.349 612.878 469.3 623.828 476.29 636.458L476.39 636.508C475.312 638.637 474.061 640.673 472.65 642.598C465.34 652.518 453.56 658.618 441.39 660.518C433.04 661.718 424.541 661.386 416.31 659.538C412.583 658.75 408.906 657.739 405.299 656.508V656.508Z" fill="white"/>
<path d="M454.008 554.538L453.847 554.548C453.837 554.358 453.828 554.168 453.828 553.978C453.691 550.284 453.894 546.585 454.437 542.928C455.403 536.341 457.422 529.953 460.418 524.008L462.187 524.128C465.325 526.414 468.345 528.857 471.237 531.448H471.457C471.827 549.288 471.057 567.198 472.777 584.958C472.887 586.108 473.117 587.428 474.127 587.988C474.719 588.244 475.368 588.337 476.008 588.258L488.587 587.868L488.887 587.918C487.337 597.368 485.487 606.778 483.267 616.108C481.597 623.098 479.657 630.158 476.387 636.508L476.287 636.458C469.297 623.828 460.347 612.878 450.487 601.798C452.74 599.326 454.269 596.281 454.907 592.998C455.897 588.308 455.448 583.438 455.007 578.668L455.037 578.428C458.056 578.768 461.107 576.198 461.887 573.148C462.746 569.788 461.496 566.218 459.716 563.238C457.936 560.258 455.617 557.618 454.008 554.538Z" fill="white"/>
<path d="M453.777 553.979C442.179 548.059 429.485 544.597 416.487 543.809L416.067 543.739C416.587 540.479 417.177 537.219 417.837 533.979L417.907 533.989C426.598 533.673 435.265 535.084 443.407 538.139C447.037 539.509 450.537 541.189 454.027 542.869L454.437 542.929C453.894 546.585 453.69 550.284 453.827 553.979H453.777Z" fill="white"/>
<path d="M425.828 727.948C440.181 728.202 454.476 726.049 468.118 721.578L468.428 722.518C469.258 725.768 466.258 726.768 464.258 728.768C453.258 736.768 442.258 741.768 432.238 749.328L431.498 749.538C429.708 743.128 428.188 736.628 426.198 730.298L425.807 729.068L425.828 727.948Z" fill="white"/>
<path d="M416.777 727.468C411.648 727.026 406.608 725.857 401.807 723.998C399.447 723.05 397.194 721.853 395.087 720.428C390.69 717.573 387.175 713.549 384.937 708.808C383.048 704.306 382.207 699.433 382.478 694.558C382.898 680.778 391.118 667.528 402.078 658.868C403.127 658.038 404.198 657.248 405.298 656.508C408.904 657.738 412.581 658.75 416.308 659.538L416.268 659.748C408.835 667.717 404.201 677.893 403.07 688.733C401.939 699.572 404.371 710.485 409.999 719.818C411.73 722.678 413.849 725.458 416.829 726.988L416.777 727.468Z" fill="white"/>
<path d="M338.137 744.329C335.946 741.41 334.123 738.233 332.707 734.869C330.127 728.199 330.477 720.659 332.497 713.809C333.675 709.964 335.246 706.25 337.187 702.729L337.198 702.719C338.668 699.969 340.318 697.289 342.018 694.669C348.935 684.009 356.836 674.022 365.618 664.839C367.556 662.706 369.715 660.785 372.058 659.109C376.378 656.809 381.108 655.789 386.188 657.419C386.642 657.576 387.075 657.787 387.478 658.049C387.538 657.849 387.588 657.649 387.648 657.439C389.268 657.889 390.888 658.399 392.518 658.789L392.468 658.979C387.543 661.97 383.708 666.464 381.528 671.799C380.454 674.634 379.689 677.578 379.248 680.579C377.948 688.409 377.628 696.489 379.288 704.249C380.948 712.009 384.688 719.459 390.588 724.769L390.688 724.869C389.128 726.389 387.568 727.919 386.008 729.439C382.118 733.239 378.228 737.042 374.338 740.849C370.288 744.799 366.138 748.839 361.018 751.259C355.898 753.679 349.538 754.249 344.718 751.279C341.978 749.589 339.987 746.959 338.137 744.329Z" fill="#171717"/>
<path d="M347.717 647.808C327.568 648.828 307.117 649.898 287.987 656.278C287.917 655.958 287.867 655.628 287.807 655.308C283.187 629.329 280.217 603.083 278.917 576.728C278.427 566.928 278.197 556.928 281.017 547.528C283.837 538.128 290.197 529.308 299.397 525.918C303.616 524.516 308.055 523.892 312.497 524.078C317.638 524.138 323.038 524.808 327.237 527.778C331.507 530.808 333.947 535.818 335.527 540.818C337.907 548.358 338.707 556.288 339.497 564.148C342.267 591.848 345.041 619.551 347.818 647.258C347.837 647.438 347.858 647.608 347.867 647.788L347.717 647.808Z" fill="#171717"/>
<path d="M222.287 720.888L223.107 721.238C216.037 737.668 212.387 755.918 209.907 773.858C209.758 774.908 209.618 775.968 209.478 777.018L209.407 777.008C196.457 769.618 183.317 762.581 169.987 755.898C175.862 736.809 183.495 718.307 192.787 700.628C203.312 706.315 213.201 713.107 222.287 720.888Z" fill="white"/>
<path d="M190.499 612.808C174.463 632.445 161.193 654.188 151.059 677.428C141.667 666.578 131.268 656.644 119.999 647.758H119.729C119.799 628.628 122.81 609.748 130.66 592.388C137.66 577.095 148.143 563.653 161.27 553.138L161.369 553.258C170.278 573.486 179.988 593.336 190.499 612.808Z" fill="white"/>
<path d="M119.999 647.758C131.268 656.644 141.667 666.578 151.059 677.428C161.193 654.188 174.463 632.446 190.499 612.808C179.999 593.358 170.289 573.508 161.369 553.258L161.27 553.138C174.424 542.443 189.912 534.995 206.48 531.398L207.26 531.328C212.73 595.658 224.739 652.128 240.999 693.868L239.799 694.338C232.837 702.357 227.203 711.439 223.109 721.238L222.29 720.888C213.203 713.107 203.314 706.315 192.789 700.628C183.498 718.307 175.865 736.81 169.99 755.898C183.31 762.578 196.45 769.615 209.41 777.008L209.48 777.018C209.45 777.278 209.41 777.548 209.38 777.808C208.17 787.178 206.549 797.668 198.969 803.298C191.929 808.518 181.699 807.548 174.189 803.038C166.679 798.528 161.379 791.138 156.799 783.668C139.629 755.648 129.579 723.708 123.859 691.338C121.194 676.963 119.812 662.378 119.729 647.758H119.999Z" fill="white"/>
<path d="M337.199 702.718C338.244 700.019 339.449 697.384 340.808 694.828C345.68 685.825 351.745 677.52 358.838 670.138L359.398 669.548C363.028 665.758 367.278 661.658 372.058 659.108C376.378 656.808 381.108 655.788 386.188 657.418C386.642 657.575 387.076 657.787 387.479 658.048C387.539 657.848 387.588 657.648 387.649 657.438C399.449 614.688 407.519 562.188 410.369 504.448C411.169 488.328 411.559 471.798 411.509 454.968C411.407 420.722 408.904 386.525 404.019 352.628C401.479 335.078 398.369 318.228 394.799 302.258C393.779 297.688 392.726 293.195 391.639 288.778C390.499 284.158 389.322 279.622 388.109 275.168C366.109 194.278 332.769 141.448 306.769 141.528C278.429 141.618 241.739 204.648 220.739 298.278C219.769 302.588 218.839 306.978 217.929 311.418C211.52 343.375 207.32 375.735 205.359 408.268C204.409 423.708 203.929 439.518 203.979 455.608C204.009 465.738 204.196 475.748 204.539 485.638C205.079 501.228 205.989 516.488 207.259 531.328C212.729 595.658 224.739 652.128 240.999 693.868C249.049 714.528 258.139 731.578 267.989 744.188L268.889 745.328" stroke="#171717" stroke-width="3" stroke-linecap="round" stroke-linejoin="round"/>
<path d="M344.407 749.789C344.318 749.709 344.228 749.629 344.138 749.539C330.918 736.329 330.958 718.759 337.187 702.729" stroke="#171717" stroke-width="3" stroke-linecap="round" stroke-linejoin="round"/>
<path d="M358.138 374.488C358.169 384.889 355.116 395.066 349.364 403.732C343.611 412.398 335.418 419.163 325.821 423.173C316.224 427.183 305.653 428.256 295.445 426.258C285.238 424.26 275.852 419.28 268.475 411.947C261.097 404.615 256.06 395.26 254 385.064C251.94 374.869 252.949 364.292 256.9 354.67C260.851 345.049 267.567 336.815 276.198 331.01C284.828 325.205 294.987 322.09 305.388 322.058C319.335 322.018 332.727 327.519 342.619 337.351C352.511 347.183 358.093 360.541 358.138 374.488V374.488Z" stroke="#171717" stroke-width="3" stroke-linecap="round" stroke-linejoin="round"/>
<path d="M347.248 374.438C347.272 382.637 344.865 390.659 340.331 397.49C335.796 404.321 329.338 409.653 321.772 412.814C314.207 415.974 305.874 416.82 297.828 415.245C289.782 413.67 282.383 409.744 276.568 403.964C270.753 398.184 266.783 390.809 265.159 382.772C263.535 374.736 264.331 366.398 267.446 358.814C270.561 351.23 275.854 344.739 282.658 340.164C289.461 335.588 297.469 333.132 305.668 333.108C311.112 333.091 316.506 334.147 321.541 336.215C326.577 338.283 331.156 341.323 335.018 345.161C338.879 348.999 341.946 353.56 344.044 358.583C346.143 363.606 347.231 368.994 347.248 374.438V374.438Z" stroke="#171717" stroke-width="3" stroke-linecap="round" stroke-linejoin="round"/>
<path d="M220.317 298.608L220.737 298.278C233.107 288.388 247.827 281.778 262.927 276.958C303.333 264.148 346.629 263.598 387.347 275.378" stroke="#171717" stroke-width="3" stroke-linecap="round" stroke-linejoin="round"/>
<path d="M216.558 312.438C217.008 312.098 217.468 311.748 217.928 311.418C241.768 293.838 271.238 284.868 300.768 282.288C330.858 279.658 361.178 283.338 390.858 288.978" stroke="#171717" stroke-width="3" stroke-linecap="round" stroke-linejoin="round"/>
<path d="M394.577 302.309L363.867 302.819C365.897 319.119 367.927 335.412 369.957 351.699C369.974 351.99 370.056 352.273 370.197 352.529C370.547 353.079 371.317 353.129 371.967 353.119C382.647 352.959 393.331 352.795 404.017 352.629H404.117" stroke="#171717" stroke-width="3" stroke-linecap="round" stroke-linejoin="round"/>
<path d="M205.648 408.289C215.288 404.429 224.921 400.575 234.548 396.729C234.088 402.319 234.778 407.929 235.458 413.499C237.888 433.239 240.315 452.982 242.738 472.729C230.433 475.452 218.486 479.597 207.138 485.079C206.458 485.409 205.848 486.139 205.128 485.929C205.057 485.917 204.993 485.88 204.947 485.825C204.902 485.77 204.877 485.7 204.878 485.629C204.878 485.219 205.478 484.639 205.468 485.199" stroke="#171717" stroke-width="3" stroke-linecap="round" stroke-linejoin="round"/>
<path d="M357.867 668.468C354.667 661.418 351.501 654.358 348.367 647.288C348.277 647.098 348.197 646.898 348.107 646.708" stroke="#171717" stroke-width="3" stroke-linecap="round" stroke-linejoin="round"/>
<path d="M287.539 656.188C287.539 656.208 287.528 656.218 287.528 656.238C282.178 685.798 275.665 715.115 267.988 744.188C266.668 749.228 265.305 754.255 263.898 759.268C262.098 765.728 260.241 772.169 258.328 778.589C254.918 790.049 251.325 801.452 247.548 812.798C289.728 800.048 333.388 793.129 377.018 787.529C389.218 785.969 401.438 784.499 413.648 783.039C405.298 766.969 397.131 750.812 389.148 734.568C388.508 733.288 387.878 731.998 387.248 730.708" stroke="#171717" stroke-width="3" stroke-linecap="round" stroke-linejoin="round"/>
<path d="M287.899 656.308L287.989 656.278C307.119 649.898 327.57 648.828 347.719 647.808" stroke="#171717" stroke-width="3" stroke-linecap="round" stroke-linejoin="round"/>
<path d="M347.878 647.848C347.879 647.827 347.876 647.807 347.868 647.788C347.858 647.608 347.838 647.438 347.819 647.258C345.049 619.558 342.275 591.855 339.498 564.148C338.708 556.288 337.908 548.358 335.528 540.818C333.949 535.818 331.509 530.808 327.238 527.778C323.038 524.808 317.638 524.138 312.498 524.078C308.056 523.892 303.617 524.516 299.398 525.918C290.198 529.308 283.828 538.138 281.018 547.528C278.208 556.918 278.428 566.928 278.918 576.728C280.218 603.083 283.187 629.329 287.808 655.308C287.868 655.628 287.918 655.958 287.988 656.278C288.058 656.698 288.128 657.118 288.208 657.538" stroke="#171717" stroke-width="3" stroke-linecap="round" stroke-linejoin="round"/>
<path d="M288.599 655.168C288.339 655.218 288.07 655.268 287.809 655.308C285.076 655.818 282.353 656.321 279.639 656.818L277.479 639.418L275.319 622.138C274.949 619.148 274.579 616.168 274.209 613.178C272.589 600.078 270.959 586.938 270.389 573.768C270.179 568.808 270.119 563.848 270.259 558.878C270.279 558.198 270.299 557.518 270.339 556.848C270.421 554.447 270.638 552.054 270.989 549.678C273.159 535.708 282.379 522.748 295.379 517.198C308.379 511.648 324.809 514.338 334.559 524.578C338.766 529.222 341.918 534.721 343.799 540.698C345.297 545.216 346.519 549.821 347.459 554.488C347.659 555.418 347.849 556.348 348.039 557.288C352.26 577.778 354.898 598.563 355.929 619.458C356.196 624.828 356.353 630.204 356.399 635.588C356.449 639.598 356.433 643.608 356.349 647.618C353.679 647.508 351.029 647.388 348.369 647.288L347.819 647.258C347.719 647.258 347.619 647.248 347.519 647.248" stroke="#171717" stroke-width="3" stroke-linecap="round" stroke-linejoin="round"/>
<path d="M270.259 556.848C266.246 557.429 262.291 558.356 258.438 559.618C259.188 564.168 259.944 568.721 260.708 573.278C260.719 573.502 260.816 573.712 260.978 573.868C261.147 573.974 261.349 574.016 261.548 573.988L269.608 573.808" stroke="#171717" stroke-width="3" stroke-linecap="round" stroke-linejoin="round"/>
<path d="M275.078 622.168C272.128 622.38 269.225 623.016 266.458 624.058C266.147 624.152 265.861 624.313 265.618 624.528C265.395 624.861 265.256 625.244 265.215 625.643C265.173 626.042 265.229 626.445 265.378 626.818C266.426 631.544 266.969 636.367 266.998 641.208C270.308 640.638 273.615 640.065 276.919 639.488" stroke="#171717" stroke-width="3" stroke-linecap="round" stroke-linejoin="round"/>
<path d="M356.668 635.588C359.431 635.078 362.251 634.957 365.048 635.228C364.508 629.908 363.971 624.584 363.438 619.258C363.436 619.052 363.385 618.85 363.289 618.668C363.009 618.218 362.338 618.258 361.819 618.358C359.859 618.728 357.889 619.088 355.928 619.458L355.598 619.518" stroke="#171717" stroke-width="3" stroke-linecap="round" stroke-linejoin="round"/>
<path d="M347.987 557.308C348.007 557.298 348.017 557.288 348.037 557.288C350.352 556.189 352.809 555.418 355.337 554.998C353.526 549.36 352.417 543.519 352.037 537.608C349.504 538.568 346.974 539.525 344.447 540.478" stroke="#171717" stroke-width="3" stroke-linecap="round" stroke-linejoin="round"/>
<path d="M206.478 531.4C189.995 535.038 174.576 542.435 161.424 553.015C148.272 563.594 137.742 577.07 130.658 592.39C122.808 609.75 119.798 628.63 119.728 647.76C119.81 662.381 121.192 676.965 123.858 691.34C129.578 723.71 139.628 755.65 156.798 783.67C161.378 791.14 166.678 798.53 174.188 803.04C181.698 807.55 191.928 808.52 198.968 803.3C206.548 797.67 208.168 787.18 209.378 777.81C209.408 777.55 209.448 777.28 209.478 777.02C209.618 775.97 209.758 774.91 209.908 773.86C212.388 755.92 216.038 737.67 223.108 721.24C227.201 711.441 232.835 702.36 239.798 694.34" stroke="#171717" stroke-width="3" stroke-linecap="round" stroke-linejoin="round"/>
<path d="M161.368 553.258C170.278 573.488 179.988 593.338 190.498 612.808C174.462 632.445 161.192 654.188 151.058 677.428C141.667 666.578 131.267 656.644 120 647.758" stroke="#171717" stroke-width="3" stroke-linecap="round" stroke-linejoin="round"/>
<path d="M222.287 720.888C213.201 713.107 203.312 706.315 192.787 700.628C183.496 718.307 175.863 736.81 169.987 755.898C183.307 762.578 196.447 769.615 209.407 777.008" stroke="#171717" stroke-width="3" stroke-linecap="round" stroke-linejoin="round"/>
<path d="M503.368 701.018C503.268 701.428 503.178 701.848 503.079 702.258C501.139 710.438 498.889 718.688 496.149 726.788C491.889 739.338 486.439 751.508 479.109 762.388C474.029 769.938 465.889 776.438 456.559 777.218C446.829 778.028 439.959 772.568 436.329 763.948C434.408 759.254 432.795 754.441 431.499 749.538C429.709 743.128 428.189 736.628 426.199 730.298L425.809 729.068" stroke="#171717" stroke-width="3" stroke-linecap="round" stroke-linejoin="round"/>
<path d="M462.188 524.128C465.325 526.414 468.346 528.857 471.237 531.448" stroke="#171717" stroke-width="3" stroke-linecap="round" stroke-linejoin="round"/>
<path d="M412.009 504.528C416.159 504.941 420.277 505.626 424.338 506.578" stroke="#171717" stroke-width="3" stroke-linecap="round" stroke-linejoin="round"/>
<path d="M450.338 601.628C450.388 601.688 450.438 601.738 450.488 601.798C460.348 612.878 469.298 623.828 476.288 636.458" stroke="#171717" stroke-width="3" stroke-linecap="round" stroke-linejoin="round"/>
<path d="M468.427 722.518C469.257 725.768 466.257 726.768 464.257 728.768C453.257 736.768 442.257 741.768 432.237 749.328" stroke="#171717" stroke-width="3" stroke-linecap="round" stroke-linejoin="round"/>
<path d="M609.737 733.5C625.258 733.77 640.258 738.77 657.258 741.77C681.258 745.77 703.258 750.77 726.258 756.77C731.748 758.28 737.204 759.85 742.627 761.48C776.667 771.71 809.247 784.36 840.598 800.59" stroke="#171717" stroke-width="3" stroke-linecap="round" stroke-linejoin="round"/>
<path d="M495.759 726.788H496.149C509.699 726.648 523.252 726.842 536.808 727.368" stroke="#171717" stroke-width="3" stroke-linecap="round" stroke-linejoin="round"/>
<path d="M389.768 734.258C401.878 732.708 414.021 731.388 426.198 730.298C426.238 730.298 426.268 730.288 426.308 730.288" stroke="#171717" stroke-width="3" stroke-linecap="round" stroke-linejoin="round"/>
<path d="M210.407 773.928C227.707 768.498 245.131 763.498 262.677 758.928" stroke="#171717" stroke-width="3" stroke-linecap="round" stroke-linejoin="round"/>
<path d="M125 804.208C136.79 799.508 148.657 795.002 160.6 790.688" stroke="#171717" stroke-width="3" stroke-linecap="round" stroke-linejoin="round"/>
<path d="M227.718 851.158C265.639 847.138 304.778 858.228 341.729 848.768C345.709 847.748 349.979 846.238 352.079 842.708C349.74 841.294 347.132 840.384 344.422 840.037C341.712 839.689 338.958 839.911 336.339 840.688" stroke="#171717" stroke-width="3" stroke-linecap="round" stroke-linejoin="round"/>
<path d="M313.708 839.2C309.119 840.762 304.163 840.886 299.502 839.555C294.842 838.224 290.699 835.5 287.628 831.75C291.088 829.14 295.528 828.31 299.808 827.63C328.44 823.049 357.45 821.261 386.428 822.29" stroke="#171717" stroke-width="3" stroke-linecap="round" stroke-linejoin="round"/>
<path d="M413.367 822.068C421.967 820.868 430.727 821.528 439.397 821.028C448.067 820.528 457.068 818.688 463.847 813.248C453.668 806.958 440.328 811.888 428.597 809.498C428.619 809.67 428.681 809.834 428.777 809.978C428.873 810.121 429.002 810.241 429.152 810.327C429.302 810.413 429.47 810.464 429.642 810.474C429.815 810.485 429.988 810.455 430.147 810.388" stroke="#171717" stroke-width="3" stroke-linecap="round" stroke-linejoin="round"/>
<path d="M522.038 817.958C516.576 818.167 511.223 819.549 506.343 822.012C501.463 824.474 497.171 827.959 493.758 832.228C493.618 834.548 496.648 835.508 498.968 835.688C533.408 838.421 567.918 839.431 602.498 838.718" stroke="#171717" stroke-width="3" stroke-linecap="round" stroke-linejoin="round"/>
<path d="M630.738 838.828C644.538 838.345 658.29 840.721 671.128 845.808C664.328 853.628 652.938 855.098 642.618 856.048C622.698 857.878 602.775 859.705 582.848 861.528" stroke="#171717" stroke-width="3" stroke-linecap="round" stroke-linejoin="round"/>
<path d="M671.759 784.728C669.337 784.215 666.823 784.338 664.463 785.085C662.103 785.831 659.976 787.176 658.289 788.988C658.039 789.203 657.841 789.473 657.711 789.776C657.581 790.079 657.522 790.408 657.539 790.738C657.689 791.538 658.599 791.928 659.379 792.178C677.149 797.678 696.109 797.548 714.709 797.378" stroke="#171717" stroke-width="3" stroke-linecap="round" stroke-linejoin="round"/>
<path d="M709.769 826.479C735.427 827.649 761.087 828.822 786.748 829.998" stroke="#171717" stroke-width="3" stroke-linecap="round" stroke-linejoin="round"/>
<path d="M751.688 475.048V475.058C748.899 570.758 745.738 665.988 742.628 761.478C741.909 783.438 741.199 805.418 740.498 827.418" stroke="#171717" stroke-width="3" stroke-linecap="round" stroke-linejoin="round"/>
<path d="M763.527 99.9004C761.427 150.77 760.127 201.92 758.797 253.1C757.417 306.42 756.008 359.78 753.657 412.91" stroke="#171717" stroke-width="3" stroke-linecap="round" stroke-linejoin="round"/>
<path d="M762.928 99.2881C762.898 99.3257 762.871 99.3659 762.848 99.4081C749.518 118.658 726.328 128.848 703.358 133.398C670.001 139.933 635.463 136.604 603.968 123.818C602.835 171.638 599.818 219.368 594.918 267.008C594.726 267.578 594.66 268.184 594.726 268.782C594.792 269.38 594.987 269.957 595.298 270.472C595.609 270.987 596.029 271.427 596.528 271.764C597.027 272.1 597.594 272.323 598.188 272.418C624.438 282.588 652.858 287.868 680.888 285.298C708.918 282.728 736.518 271.978 757.348 253.058" stroke="#171717" stroke-width="3" stroke-linecap="round" stroke-linejoin="round"/>
<path d="M524.488 417.548C524.488 417.458 524.478 417.378 524.478 417.288L523.788 399.498C523.455 390.948 523.125 382.395 522.798 373.838C522.579 367.968 522.588 361.418 526.588 357.108C529.031 354.688 532.227 353.174 535.648 352.818C539.042 352.48 542.464 352.527 545.848 352.958C552.228 353.538 558.608 354.115 564.988 354.688C565.158 354.708 565.329 354.718 565.498 354.738C571.358 355.248 577.618 355.588 582.649 352.578C584.808 351.288 586.759 348.908 586.089 346.498C585.349 343.818 581.998 342.948 579.229 342.878C575.925 342.796 572.626 343.18 569.429 344.018C569.179 344.078 568.929 344.148 568.679 344.218C568.299 344.318 567.929 344.438 567.549 344.558" stroke="#171717" stroke-width="3" stroke-linecap="round" stroke-linejoin="round"/>
<path d="M523.158 399.518C522.348 401.378 521.548 403.248 520.738 405.108C519.699 407.508 518.398 410.148 515.918 410.978C515.263 411.233 514.544 411.273 513.865 411.094C513.186 410.914 512.581 410.523 512.138 409.978C511.903 409.605 511.731 409.196 511.628 408.768C510.887 405.543 510.991 402.182 511.928 399.008C512.678 395.978 513.758 393.038 514.428 389.988C514.468 389.828 514.508 389.658 514.538 389.498" stroke="#171717" stroke-width="3" stroke-linecap="round" stroke-linejoin="round"/>
<path d="M514.008 389.9C512.797 392.93 511.594 395.96 510.398 398.99C509.568 401.07 508.687 403.23 507.038 404.73C506.7 405.131 506.262 405.436 505.768 405.614C505.275 405.793 504.743 405.838 504.226 405.746C503.709 405.654 503.226 405.427 502.824 405.089C502.423 404.751 502.117 404.313 501.938 403.82C499.818 400.19 501.098 395.57 502.788 391.72C504.787 387.172 507.282 382.859 510.228 378.86C510.278 378.79 510.338 378.71 510.388 378.64" stroke="#171717" stroke-width="3" stroke-linecap="round" stroke-linejoin="round"/>
<path d="M510 378.689C507.49 381.449 503.68 383.409 500.071 382.499C499.402 382.367 498.784 382.048 498.29 381.579C497.11 380.359 497.54 378.339 498.19 376.769C500.435 371.331 504.247 366.684 509.141 363.419C509.36 363.269 509.581 363.119 509.81 362.979" stroke="#171717" stroke-width="3" stroke-linecap="round" stroke-linejoin="round"/>
<path d="M509.037 363.268C508.533 363.469 507.999 363.588 507.457 363.618C506.04 363.584 504.65 363.221 503.397 362.558C502.367 362.108 501.347 361.638 500.327 361.148C499.407 360.708 498.357 360.048 498.327 359.028C498.347 358.609 498.46 358.199 498.657 357.828C499.502 355.592 500.668 353.49 502.117 351.588C503.565 349.907 505.425 348.631 507.515 347.885C509.604 347.138 511.852 346.946 514.037 347.328C514.337 347.378 514.637 347.438 514.937 347.518" stroke="#171717" stroke-width="3" stroke-linecap="round" stroke-linejoin="round"/>
<path d="M514.069 347.358L514.038 347.328C512.989 346.148 512.12 344.821 511.458 343.388C510.733 341.298 510.548 339.059 510.918 336.878C511.008 335.893 511.216 334.923 511.538 333.988C512.858 330.508 516.758 328.478 520.478 328.508C521.384 328.48 522.284 328.661 523.108 329.038C524.305 329.803 525.272 330.878 525.908 332.148C526.552 333.06 527.002 334.094 527.228 335.188C527.248 335.337 527.259 335.487 527.259 335.638" stroke="#171717" stroke-width="3" stroke-linecap="round" stroke-linejoin="round"/>
<path d="M527.407 335.178C527.607 331.318 528.507 327.358 530.847 324.268C531.666 323.197 532.636 322.251 533.727 321.458C534.977 320.505 536.457 319.901 538.017 319.708C538.793 319.616 539.581 319.696 540.322 319.943C541.064 320.19 541.742 320.598 542.307 321.138C543.637 322.488 543.937 324.528 543.997 326.428C544.064 328.201 543.991 329.977 543.777 331.738C543.697 332.428 543.587 333.118 543.467 333.798" stroke="#171717" stroke-width="3" stroke-linecap="round" stroke-linejoin="round"/>
<path d="M543.357 333.048C543.456 332.599 543.597 332.161 543.777 331.738C544.392 330.385 545.186 329.12 546.137 327.978C547.725 325.801 549.626 323.87 551.777 322.248C553.946 320.618 556.606 319.775 559.317 319.858C559.86 319.87 560.393 320.003 560.877 320.248C562.137 320.968 562.377 322.678 562.317 324.128C562.208 326.474 561.677 328.781 560.747 330.938C560.577 331.348 560.387 331.748 560.187 332.138C560.327 331.898 560.477 331.658 560.617 331.418" stroke="#171717" stroke-width="3" stroke-linecap="round" stroke-linejoin="round"/>
<path d="M559.907 331.628C560.177 331.388 560.457 331.148 560.747 330.938C565.217 327.438 571.398 326.418 576.967 327.598C578.539 327.862 580.025 328.492 581.307 329.438C581.938 329.921 582.439 330.553 582.764 331.277C583.088 332.002 583.227 332.796 583.167 333.588C582.927 335.398 581.427 336.748 579.967 337.838C576.699 340.29 573.163 342.363 569.427 344.018C569.147 344.148 568.867 344.268 568.587 344.388C568.617 344.328 568.647 344.268 568.677 344.218C568.737 344.108 568.797 343.998 568.847 343.888" stroke="#171717" stroke-width="3" stroke-linecap="round" stroke-linejoin="round"/>
<path d="M539.678 368.588C539.286 368.013 538.747 367.552 538.117 367.255C537.487 366.958 536.789 366.835 536.096 366.898C535.402 366.961 534.738 367.209 534.172 367.615C533.606 368.021 533.16 368.571 532.878 369.208" stroke="#171717" stroke-width="3" stroke-linecap="round" stroke-linejoin="round"/>
<path d="M530.458 388.968C529.937 389.138 529.978 389.878 530.127 390.398C530.651 392.538 531.775 394.485 533.367 396.008C534.174 396.754 535.177 397.252 536.259 397.444C537.34 397.635 538.454 397.512 539.467 397.088" stroke="#171717" stroke-width="3" stroke-linecap="round" stroke-linejoin="round"/>
<path d="M543.918 387.248C545.038 387.098 546.138 386.827 547.199 386.438C547.611 386.321 547.986 386.101 548.289 385.798C548.661 385.22 548.8 384.524 548.679 383.848C548.149 376.418 545.479 369.248 545.139 361.808C545.099 361.552 545.138 361.291 545.249 361.058C545.363 360.922 545.504 360.811 545.662 360.73C545.82 360.649 545.992 360.601 546.169 360.588C550.062 359.756 554.021 359.27 557.999 359.138" stroke="#171717" stroke-width="3" stroke-linecap="round" stroke-linejoin="round"/>
<path d="M551.899 368.588C552.183 368.056 552.616 367.619 553.145 367.331C553.674 367.043 554.277 366.917 554.877 366.968C555.478 367.019 556.05 367.245 556.523 367.619C556.996 367.992 557.349 368.496 557.538 369.068" stroke="#171717" stroke-width="3" stroke-linecap="round" stroke-linejoin="round"/>
<path d="M548.899 416.119C548.889 415.999 548.878 415.869 548.878 415.749C548.657 412.141 548.751 408.52 549.159 404.929C549.159 404.889 549.169 404.849 549.169 404.809" stroke="#171717" stroke-width="3" stroke-linecap="round" stroke-linejoin="round"/>
<path d="M548.907 404.908C548.99 404.92 549.074 404.927 549.157 404.928C554.347 405.388 559.237 401.658 561.667 397.018C564.137 392.318 564.597 386.838 564.897 381.538C565.207 375.998 565.407 370.438 565.477 364.888C565.527 361.548 565.527 358.198 565.487 354.858" stroke="#171717" stroke-width="3" stroke-linecap="round" stroke-linejoin="round"/>
<path d="M563.417 417.838C560.504 417.08 557.539 416.532 554.547 416.198C552.667 415.968 550.777 415.828 548.877 415.748C546.687 415.648 544.487 415.638 542.277 415.698C538.397 415.798 534.496 416.108 530.607 416.538C528.557 416.758 526.514 417.008 524.477 417.288C522.837 417.498 521.207 417.728 519.587 417.968C518.597 418.108 517.607 418.258 516.626 418.398C515.35 418.447 514.126 418.918 513.147 419.738C512.601 420.392 512.269 421.199 512.197 422.048C512.126 422.558 512.106 423.098 512.087 423.608C512.017 426.258 511.936 428.898 511.867 431.548C511.844 431.978 511.881 432.409 511.977 432.828C512.013 433.023 512.089 433.209 512.201 433.373C512.313 433.536 512.458 433.675 512.627 433.778C513.071 433.97 513.564 434.019 514.037 433.918C515.717 433.728 517.397 433.558 519.077 433.398C522.797 433.028 526.52 432.728 530.246 432.498C534.017 432.238 537.777 432.048 541.546 431.938C545.556 431.788 549.567 431.728 553.577 431.728C556.677 431.728 559.767 431.768 562.866 431.848C564.026 431.878 565.376 431.828 566.056 430.898C566.258 430.614 566.398 430.29 566.466 429.948C566.516 429.728 566.556 429.498 566.586 429.278C566.866 427.398 567.066 425.512 567.186 423.618C567.371 422.318 567.216 420.991 566.736 419.768C566.726 419.758 566.726 419.738 566.716 419.728C566.455 419.136 566 418.651 565.424 418.355C564.849 418.058 564.19 417.967 563.556 418.098" stroke="#171717" stroke-width="3" stroke-linecap="round" stroke-linejoin="round"/>
<path d="M553.578 431.418C553.898 426.398 554.215 421.378 554.528 416.358" stroke="#171717" stroke-width="3" stroke-linecap="round" stroke-linejoin="round"/>
<path d="M541.519 431.178C542.03 426.174 542.287 421.148 542.289 416.118" stroke="#171717" stroke-width="3" stroke-linecap="round" stroke-linejoin="round"/>
<path d="M530.228 432.118C530.198 427.038 530.338 421.965 530.648 416.898L530.738 417.528" stroke="#171717" stroke-width="3" stroke-linecap="round" stroke-linejoin="round"/>
<path d="M519.047 433.058C518.805 428.111 518.999 423.152 519.627 418.238" stroke="#171717" stroke-width="3" stroke-linecap="round" stroke-linejoin="round"/>
<path d="M566.389 419.9C566.498 419.84 566.608 419.79 566.719 419.73C579.188 413.31 590.369 404.19 598.378 392.69C603.969 384.713 607.822 375.651 609.688 366.09C610.517 361.731 610.869 357.295 610.738 352.86C610.097 336.84 603.276 321.69 591.708 310.59C586.514 305.754 580.733 301.591 574.5 298.2C566.76 293.86 558.4 290.31 549.58 289.35C543.635 288.784 537.638 289.158 531.81 290.46C509.93 295.01 490.23 309.59 479.96 329.44C473.098 342.875 470.562 358.105 472.7 373.04C473.72 380.346 475.912 387.441 479.19 394.05C485.81 407.34 497.48 418.75 511.97 422.01" stroke="#171717" stroke-width="3" stroke-linecap="round" stroke-linejoin="round"/>
<path d="M512.127 432.818C512.078 432.818 512.027 432.828 511.977 432.828C501.857 433.438 492.207 437.068 482.947 441.258C481.977 441.698 481.007 442.148 480.047 442.598C473.774 445.402 467.735 448.702 461.987 452.468C461.487 452.798 460.987 453.148 460.497 453.498C458.138 455.19 455.878 457.017 453.728 458.968C445.312 466.781 438.371 476.045 433.238 486.318C429.909 492.894 427.104 499.722 424.847 506.738C422.668 513.368 420.888 520.148 419.337 526.958C418.804 529.288 418.304 531.628 417.837 533.978C417.177 537.218 416.587 540.478 416.068 543.738C413.505 558.634 412.823 573.793 414.038 588.858C414.418 593.098 415.087 597.558 417.818 600.818C422.138 605.998 429.847 606.298 436.587 606.168C440.127 606.108 443.807 606.008 446.978 604.428C448.291 603.76 449.478 602.87 450.488 601.798C452.741 599.326 454.27 596.282 454.908 592.998C455.898 588.308 455.448 583.438 455.008 578.668" stroke="#171717" stroke-width="3" stroke-linecap="round" stroke-linejoin="round"/>
<path d="M443.268 564.5C445.238 567.68 447.284 570.81 449.408 573.89C450.639 575.68 452.039 577.56 454.108 578.23C454.409 578.33 454.721 578.397 455.038 578.43C458.057 578.77 461.108 576.2 461.888 573.15C462.747 569.79 461.497 566.22 459.717 563.24C457.937 560.26 455.617 557.62 454.008 554.54" stroke="#171717" stroke-width="3" stroke-linecap="round" stroke-linejoin="round"/>
<path d="M453.848 554.6V554.55C453.838 554.36 453.829 554.17 453.829 553.98C453.691 550.285 453.895 546.586 454.438 542.93C455.779 533.651 459.231 524.805 464.528 517.07C466.217 514.612 468.085 512.282 470.118 510.1C477.138 502.555 485.931 496.883 495.7 493.6" stroke="#171717" stroke-width="3" stroke-linecap="round" stroke-linejoin="round"/>
<path d="M566.068 429.988C566.198 429.978 566.338 429.968 566.468 429.948C581.958 428.588 597.445 427.222 612.928 425.848L636.368 423.778C648.048 422.738 659.732 421.705 671.418 420.678C683.198 419.638 694.978 418.595 706.758 417.548L715.288 416.798C731.168 415.398 747.048 413.995 762.928 412.588C765.868 412.328 769.048 412.118 771.588 413.638C772.476 414.178 773.231 414.909 773.798 415.778C774.601 417.056 775.083 418.509 775.205 420.013C775.327 421.517 775.085 423.028 774.498 424.418C772.898 428.158 769.238 430.688 765.358 431.908C761.478 433.128 757.358 433.208 753.298 433.278C750.808 433.318 748.318 433.368 745.828 433.408C742.762 433.458 739.692 433.512 736.618 433.568" stroke="#171717" stroke-width="3" stroke-linecap="round" stroke-linejoin="round"/>
<path d="M774.728 415.758C778.888 415.758 782.759 418.248 785.298 421.538C787.837 424.828 789.218 428.868 790.259 432.888C791.641 438.277 792.474 443.791 792.748 449.348C793.188 458.358 791.498 468.588 784.089 473.728C780.709 475.891 776.817 477.12 772.808 477.288C765.769 477.838 758.738 476.458 751.808 475.078C751.769 475.066 751.728 475.06 751.688 475.058C747.658 474.258 743.399 473.318 740.449 470.468C738.659 468.642 737.406 466.359 736.829 463.868C736.401 462.184 736.136 460.463 736.039 458.728C735.439 449.488 738.329 439.418 745.839 434.008" stroke="#171717" stroke-width="3" stroke-linecap="round" stroke-linejoin="round"/>
<path d="M592.228 474.328C599.698 473.988 607.164 473.642 614.628 473.288C616.968 473.188 619.308 473.082 621.648 472.968C628.108 472.678 634.568 472.378 641.018 471.968C649.978 471.408 658.919 470.638 667.859 469.868C680.459 468.778 693.055 467.692 705.648 466.608C708.598 466.348 711.539 466.098 714.489 465.848C721.859 465.208 729.225 464.572 736.589 463.938" stroke="#171717" stroke-width="3" stroke-linecap="round" stroke-linejoin="round"/>
<path d="M591.537 473.479C591.557 473.779 591.587 474.079 591.607 474.379C594.297 509.769 596.997 545.158 599.517 580.548C603.147 631.518 606.407 682.509 608.787 733.539C608.927 736.219 609.05 738.895 609.157 741.569C609.407 746.849 609.627 752.119 609.847 757.389" stroke="#171717" stroke-width="3" stroke-linecap="round" stroke-linejoin="round"/>
<path d="M497.808 482C497.628 485.89 497.459 489.78 497.278 493.67C495.808 525.21 493.958 556.84 488.888 587.92C487.338 597.37 485.488 606.78 483.268 616.11C481.598 623.1 479.658 630.16 476.388 636.51C475.309 638.638 474.058 640.675 472.648 642.6C465.338 652.52 453.558 658.62 441.388 660.52C433.038 661.72 424.539 661.388 416.308 659.54C412.58 658.752 408.904 657.74 405.298 656.51C405.198 656.48 405.108 656.44 405.008 656.41" stroke="#171717" stroke-width="3" stroke-linecap="round" stroke-linejoin="round"/>
<path d="M405.557 656.328C405.467 656.388 405.387 656.448 405.297 656.508C404.197 657.248 403.127 658.038 402.077 658.868C391.117 667.528 382.897 680.778 382.477 694.558C382.207 699.433 383.048 704.305 384.937 708.808C387.174 713.549 390.689 717.573 395.087 720.428C397.194 721.853 399.447 723.05 401.807 723.998C406.608 725.857 411.648 727.025 416.777 727.468C419.377 727.738 421.997 727.868 424.607 727.928C425.017 727.938 425.427 727.948 425.827 727.948C440.181 728.201 454.475 726.048 468.117 721.578C480.227 717.632 491.527 711.538 501.477 703.588C502.017 703.148 502.547 702.708 503.077 702.258C523.917 684.608 536.717 657.898 537.937 630.648C538.147 626.128 538.027 621.6 537.577 617.098" stroke="#171717" stroke-width="3" stroke-linecap="round" stroke-linejoin="round"/>
<path d="M537.399 617.528C537.599 621.898 537.789 626.278 537.938 630.648C539.15 662.888 539.28 695.142 538.329 727.408C538.169 733.258 537.966 739.108 537.719 744.958C537.529 749.608 537.316 754.252 537.079 758.888C537.079 758.978 537.069 759.078 537.069 759.168" stroke="#171717" stroke-width="3" stroke-linecap="round" stroke-linejoin="round"/>
<path d="M537 758.758C537.031 758.798 537.05 758.848 537.081 758.888C538.373 761.045 540.154 762.867 542.281 764.208C545.41 766.139 548.816 767.58 552.381 768.478C554.462 769.058 556.561 769.578 558.681 769.998C574.283 772.963 590.43 770.223 604.181 762.278C605.371 761.578 606.541 760.848 607.691 760.078C608.681 759.408 609.751 758.518 609.851 757.388C609.861 757.269 609.861 757.148 609.851 757.028" stroke="#171717" stroke-width="3" stroke-linecap="round" stroke-linejoin="round"/>
<path d="M542.259 764.228C542.377 767.248 542.497 770.271 542.618 773.298L543.399 792.828C543.379 794.946 543.685 797.054 544.308 799.078C545.113 800.985 546.228 802.745 547.608 804.288C552.555 810.367 558.044 815.983 564.008 821.068C566.166 823.039 568.59 824.698 571.208 825.998C574.898 827.658 579.028 828.018 583.068 828.168C595.158 828.638 607.237 827.568 619.287 826.438C622.077 826.178 625.057 825.838 627.177 823.998C629.297 822.158 630.057 819.208 630.568 816.438C631.457 811.614 631.928 806.723 631.977 801.818C632.123 799.23 631.776 796.637 630.957 794.178C629.77 791.58 628.037 789.267 625.877 787.398C621.897 783.578 617.497 780.208 613.557 776.338C611.881 774.717 610.333 772.968 608.927 771.108C606.959 768.585 605.437 765.744 604.427 762.708" stroke="#171717" stroke-width="3" stroke-linecap="round" stroke-linejoin="round"/>
<path d="M399.767 659.288C397.342 659.631 394.872 659.461 392.517 658.788C390.887 658.398 389.267 657.888 387.647 657.438C384.883 656.487 381.955 656.102 379.038 656.308C376.519 656.662 374.123 657.623 372.057 659.108C369.714 660.785 367.556 662.706 365.617 664.838C356.835 674.021 348.934 684.008 342.017 694.668C340.317 697.288 338.667 699.968 337.197 702.718L337.187 702.728C335.246 706.249 333.674 709.963 332.497 713.808C330.477 720.658 330.127 728.198 332.707 734.868C334.123 738.232 335.946 741.409 338.137 744.328C339.987 746.958 341.977 749.588 344.717 751.278C349.537 754.248 355.897 753.678 361.017 751.258C366.137 748.838 370.287 744.798 374.337 740.848C378.227 737.048 382.117 733.244 386.007 729.438C387.567 727.918 389.127 726.388 390.687 724.868C392.057 723.518 393.437 722.178 394.807 720.838" stroke="#171717" stroke-width="3" stroke-linecap="round" stroke-linejoin="round"/>
<path d="M392.468 658.979C387.542 661.97 383.707 666.464 381.528 671.798C380.453 674.634 379.688 677.578 379.248 680.578C377.948 688.408 377.628 696.488 379.289 704.248C380.95 712.008 384.689 719.458 390.589 724.768" stroke="#171717" stroke-width="3" stroke-linecap="round" stroke-linejoin="round"/>
<path d="M416.267 659.748C408.833 667.717 404.199 677.893 403.068 688.733C401.936 699.572 404.369 710.485 409.997 719.818C411.727 722.678 413.847 725.458 416.827 726.988" stroke="#171717" stroke-width="3" stroke-linecap="round" stroke-linejoin="round"/>
<path d="M538.027 744.968C559.767 756.948 588.197 755.588 608.697 741.588" stroke="#171717" stroke-width="3" stroke-linecap="round" stroke-linejoin="round"/>
<path d="M541.407 772.068C541.797 772.488 542.197 772.898 542.617 773.298C550.787 781.138 563.107 783.748 574.448 782.518C586.367 781.238 597.538 776.308 608.497 771.438" stroke="#171717" stroke-width="3" stroke-linecap="round" stroke-linejoin="round"/>
<path d="M454.048 459.308C456.088 465.288 458.128 471.265 460.168 477.238C465.728 475.038 471.188 472.611 476.548 469.958C481.138 467.698 485.641 465.275 490.058 462.688C488.608 458.308 487.148 453.928 485.708 449.548C484.798 446.818 483.898 444.098 482.998 441.368" stroke="#171717" stroke-width="3" stroke-linecap="round" stroke-linejoin="round"/>
<path d="M476.509 469.878C475.139 465.578 473.765 461.282 472.389 456.988C472.339 456.882 472.328 456.762 472.359 456.648C472.403 456.549 472.476 456.465 472.569 456.408C476.443 453.555 480.719 451.294 485.259 449.698" stroke="#171717" stroke-width="3" stroke-linecap="round" stroke-linejoin="round"/>
<path d="M461.818 452.218C459.288 430.568 457.958 408.508 461.877 387.058C462.577 383.198 463.587 379.128 466.427 376.408C468.234 374.823 470.379 373.671 472.697 373.038C473.197 372.868 473.707 372.718 474.217 372.568C483.448 369.873 493.021 368.532 502.637 368.588" stroke="#171717" stroke-width="3" stroke-linecap="round" stroke-linejoin="round"/>
<path d="M565.1 364.908C565.23 364.898 565.35 364.898 565.48 364.888C576.3 364.378 587.12 363.864 597.94 363.348C602.081 363.148 606.821 363.198 609.69 366.088C609.81 366.208 609.93 366.338 610.04 366.468C612.21 368.998 612.35 372.638 612.38 375.968C612.54 392.328 612.7 408.688 612.86 425.048" stroke="#171717" stroke-width="3" stroke-linecap="round" stroke-linejoin="round"/>
<path d="M470.259 510.238C470.989 517.288 471.319 524.358 471.459 531.448C471.829 549.288 471.059 567.198 472.779 584.958C472.889 586.108 473.119 587.428 474.129 587.988C474.72 588.244 475.369 588.337 476.009 588.258L488.589 587.868" stroke="#171717" stroke-width="3" stroke-linecap="round" stroke-linejoin="round"/>
<path d="M599.228 580.548H599.518C603.298 580.598 607.648 580.268 609.758 577.148C610.468 575.941 610.946 574.611 611.168 573.228C615.148 555.068 615.488 536.338 615.648 517.748C615.788 502.918 615.818 488.068 614.628 473.288C614.618 473.118 614.598 472.948 614.588 472.778" stroke="#171717" stroke-width="3" stroke-linecap="round" stroke-linejoin="round"/>
<path d="M453.777 553.979C442.179 548.059 429.485 544.597 416.487 543.809" stroke="#171717" stroke-width="3" stroke-linecap="round" stroke-linejoin="round"/>
<path d="M454.027 542.868C450.538 541.188 447.038 539.508 443.407 538.138C435.265 535.083 426.598 533.672 417.907 533.988" stroke="#171717" stroke-width="3" stroke-linecap="round" stroke-linejoin="round"/>
<path d="M715.288 416.838C713.126 432.991 712.85 449.341 714.468 465.558" stroke="#171717" stroke-width="3" stroke-linecap="round" stroke-linejoin="round"/>
<path d="M706.769 417.5C706.769 417.52 706.759 417.53 706.759 417.55C703.725 433.44 703.323 449.72 705.569 465.74" stroke="#171717" stroke-width="3" stroke-linecap="round" stroke-linejoin="round"/>
<path d="M636.389 423.648C636.378 423.688 636.378 423.738 636.368 423.778C636.019 426.368 635.752 428.965 635.568 431.568C635.225 436.1 635.129 440.646 635.278 445.188C640.198 444.898 645.111 444.611 650.018 444.328L669.127 443.218C669.466 443.306 669.823 443.305 670.162 443.217C670.501 443.128 670.812 442.954 671.065 442.712C671.319 442.47 671.506 442.167 671.609 441.832C671.713 441.497 671.729 441.141 671.657 440.798C671.577 434.138 671.5 427.481 671.427 420.828" stroke="#171717" stroke-width="3" stroke-linecap="round" stroke-linejoin="round"/>
<path d="M650.019 444.358V444.328C649.686 439.698 649.359 435.068 649.039 430.438C649.052 430.246 648.991 430.057 648.869 429.908C648.754 429.8 648.606 429.733 648.449 429.718C646.019 429.228 643.519 429.778 641.099 430.338C639.289 430.748 637.479 431.161 635.669 431.578" stroke="#171717" stroke-width="3" stroke-linecap="round" stroke-linejoin="round"/>
<path d="M575.177 459.348C572.967 459.518 570.747 459.708 568.537 459.918C563.327 460.398 558.127 460.964 552.937 461.618C548.737 462.138 544.541 462.721 540.347 463.368C537.457 463.808 534.557 464.278 531.647 464.478C531.267 464.508 530.887 464.528 530.507 464.548C526.877 464.718 523.197 464.568 519.597 464.838C517.307 464.974 515.04 465.383 512.847 466.058C512.327 469.708 512.827 473.418 513.287 477.068C516.475 502.816 517.239 528.807 515.568 554.698C515.57 554.778 515.566 554.858 515.557 554.938C536.578 553.648 557.615 552.651 578.667 551.948C579.027 551.928 579.377 551.918 579.737 551.908C581.23 521.265 580.066 490.55 576.258 460.108" stroke="#171717" stroke-width="3" stroke-linecap="round" stroke-linejoin="round"/>
<path d="M512.628 465.828C512.618 465.847 512.604 465.864 512.589 465.878C511.679 467.218 510.759 468.578 509.839 469.918C509.393 470.503 509.036 471.15 508.779 471.838C508.564 472.646 508.483 473.484 508.539 474.318C508.859 502.958 508.922 531.598 508.729 560.238V560.618C525.099 560.458 541.469 560.295 557.839 560.128C561.808 560.088 565.839 560.038 569.639 558.908C573.389 557.788 576.949 555.458 578.669 551.948C578.699 551.9 578.726 551.85 578.749 551.798" stroke="#171717" stroke-width="3" stroke-linecap="round" stroke-linejoin="round"/>
<path d="M508.747 560.238C511.028 558.388 513.287 556.538 515.568 554.698C515.708 554.578 515.857 554.468 515.997 554.348" stroke="#171717" stroke-width="3" stroke-linecap="round" stroke-linejoin="round"/>
<path d="M552.899 461.288L552.569 457.268C552.498 456.936 552.555 456.59 552.728 456.298C552.861 456.173 553.019 456.075 553.191 456.012C553.362 455.948 553.545 455.92 553.728 455.928L567.328 454.758C567.469 454.736 567.614 454.75 567.748 454.798C567.832 454.858 567.902 454.934 567.955 455.022C568.009 455.109 568.044 455.207 568.058 455.308C568.487 456.798 568.65 458.352 568.538 459.898" stroke="#171717" stroke-width="3" stroke-linecap="round" stroke-linejoin="round"/>
<path d="M530.499 464.358C530.558 463.032 530.491 461.703 530.299 460.388C530.297 460.239 530.264 460.092 530.202 459.956C530.14 459.82 530.051 459.698 529.939 459.598C529.773 459.5 529.584 459.445 529.39 459.438C526.413 459.169 523.411 459.527 520.58 460.488C520.193 460.592 519.832 460.776 519.52 461.028C518.59 461.898 519.05 463.418 519.58 464.578" stroke="#171717" stroke-width="3" stroke-linecap="round" stroke-linejoin="round"/>
<path d="M566.008 468.969C564.475 469.197 563.055 469.912 561.958 471.009C561.418 471.56 561.018 472.232 560.792 472.97C560.566 473.708 560.52 474.489 560.658 475.249C560.87 476.054 561.298 476.786 561.895 477.365C562.493 477.945 563.237 478.351 564.048 478.539C564.864 478.71 565.707 478.701 566.519 478.513C567.331 478.325 568.092 477.961 568.748 477.449C569.506 476.946 570.037 476.167 570.228 475.279C570.286 474.655 570.218 474.026 570.028 473.429C569.824 472.342 569.446 471.295 568.908 470.329C568.638 469.847 568.258 469.436 567.8 469.128C567.341 468.821 566.816 468.626 566.268 468.559" stroke="#171717" stroke-width="3" stroke-linecap="round" stroke-linejoin="round"/>
<path d="M550.758 469.548C550.788 469.268 550.437 469.118 550.158 469.088C550.065 469.08 549.971 469.076 549.877 469.078C549.158 469.116 548.461 469.344 547.859 469.739C547.256 470.134 546.769 470.683 546.448 471.328C545.791 472.724 545.591 474.292 545.877 475.808C545.946 476.788 546.321 477.722 546.948 478.478C547.344 478.88 547.826 479.188 548.357 479.378C549.403 479.785 550.546 479.874 551.642 479.635C552.738 479.395 553.74 478.837 554.52 478.031C555.301 477.225 555.826 476.206 556.03 475.103C556.234 473.999 556.108 472.86 555.667 471.828C555.482 471.329 555.156 470.894 554.727 470.578C554.318 470.318 553.818 470.228 553.417 469.978C552.967 469.698 552.667 469.228 552.237 468.918C552.044 468.741 551.793 468.641 551.532 468.638C551.27 468.634 551.016 468.727 550.818 468.898" stroke="#171717" stroke-width="3" stroke-linecap="round" stroke-linejoin="round"/>
<path d="M769.276 488.375C772.706 488.969 776.191 487.988 779.526 486.992C782.077 486.29 784.575 485.406 786.999 484.348C791.759 482.066 795.817 478.544 798.746 474.153C801.675 469.761 803.368 464.662 803.645 459.391" stroke="#171717" stroke-width="3" stroke-linecap="round" stroke-linejoin="round"/>
<path d="M811.759 506.286C815.161 505.551 818.329 503.987 820.981 501.732C823.633 499.477 825.686 496.602 826.959 493.362" stroke="#171717" stroke-width="3" stroke-linecap="round" stroke-linejoin="round"/>
<path d="M643.485 293.387C660.242 298.524 678.122 298.745 695 294.023" stroke="#171717" stroke-width="3" stroke-linecap="round" stroke-linejoin="round"/>
<path d="M421.872 488.386C426.431 475.159 434.412 463.374 445.004 454.232" stroke="#171717" stroke-width="0.5" stroke-miterlimit="10"/>
<path d="M379.586 646.69C372.712 647.204 366.1 649.546 360.435 653.473C354.769 657.401 350.257 662.771 347.364 669.028C347.177 669.448 347.04 670.037 347.427 670.288C347.814 670.539 348.071 669.556 347.657 669.756" stroke="#171717" stroke-width="3" stroke-miterlimit="10"/>
<path d="M330.94 754.028L339.548 757.628C340.97 758.273 342.448 758.787 343.962 759.163C346.939 759.652 349.984 759.531 352.913 758.808C356.991 758.01 361.003 756.904 364.913 755.499" stroke="#171717" stroke-width="3" stroke-miterlimit="10"/>
<path d="M363.454 664.956C356.356 671.83 350.243 679.652 345.288 688.2" stroke="#171717" stroke-width="0.5" stroke-miterlimit="10"/>
<path d="M334.867 710.273C333.403 712.674 332.643 715.438 332.675 718.249C332.712 721.045 333.012 723.831 333.57 726.571L334.308 730.88C334.787 733.675 335.526 736.847 338.022 738.19" stroke="#171717" stroke-width="0.5" stroke-miterlimit="10"/>
<path d="M581.041 289.889C583.564 285.409 586.253 281.028 589.109 276.747" stroke="#171717" stroke-width="6" stroke-linecap="round" stroke-linejoin="round"/>
<path d="M541.388 287.282C538.328 282.715 535.62 277.922 533.288 272.943" stroke="#171717" stroke-width="6" stroke-linecap="round" stroke-linejoin="round"/>
<path d="M518.51 298.1C515.679 296.648 513.544 294.163 511.482 291.739C504.514 283.539 497.543 275.339 490.571 267.139" stroke="#171717" stroke-width="6" stroke-linecap="round" stroke-linejoin="round"/>
<path d="M503.5 311.6C498.619 309.256 493.917 306.558 489.431 303.527" stroke="#171717" stroke-width="6" stroke-linecap="round" stroke-linejoin="round"/>
<path d="M562.329 285.245C563.678 272.011 564.772 258.756 565.612 245.479" stroke="#171717" stroke-width="6" stroke-linecap="round" stroke-linejoin="round"/>
<path d="M614.037 404.128C615.137 402.912 617.27 403.44 618.563 402.437C619.043 402.024 619.403 401.489 619.605 400.889C620.138 399.262 620.382 397.554 620.325 395.843C620.408 391.738 620.354 387.633 620.164 383.529C620.207 382.515 619.965 381.51 619.464 380.629C619.089 380.161 618.604 379.794 618.051 379.562C617.498 379.33 616.896 379.24 616.3 379.301C615.108 379.435 613.957 379.817 612.921 380.423" stroke="#171717" stroke-width="3" stroke-linecap="round" stroke-linejoin="round"/>
<path d="M620.768 390.683C623.637 389.493 627.31 388.434 629.533 390.602C631.054 392.085 631.153 394.456 631.155 396.579L631.191 462.912C631.191 466.912 631.191 470.912 631.031 474.912C630.942 477.078 630.769 479.354 629.581 481.167C627.649 484.116 623.746 484.9 620.26 485.429C616.437 486.009 612.274 486.529 608.921 484.604C607.444 483.691 606.171 482.482 605.184 481.053C600.475 474.664 599.396 466.246 600 458.333C600.221 455.433 600.638 452.454 599.8 449.669C598.422 445.069 593.97 442.094 589.525 440.278C582.903 437.583 575.709 436.595 568.605 437.405C564.973 437.824 561.046 438.951 559.053 442.015C557.06 445.079 557.619 449.089 558.253 452.694" stroke="white" stroke-width="3" stroke-linecap="round" stroke-linejoin="round"/>
<path d="M469.154 281.949C462.248 275.177 455.094 268.671 447.692 262.43" stroke="#171717" stroke-width="3" stroke-linecap="round" stroke-linejoin="round"/>
<path d="M449.927 285.422L463.809 262.658C464.078 262.217 464.521 261.708 465.009 261.886C465.497 262.064 464.809 262.972 464.688 262.47" stroke="#171717" stroke-width="3" stroke-linecap="round" stroke-linejoin="round"/>
<path d="M824.443 295.833L826.343 297.999L809.989 276.321" stroke="#171717" stroke-width="3" stroke-linecap="round" stroke-linejoin="round"/>
<path d="M828.731 274.005C821.309 280.938 814.209 288.192 807.431 295.767" stroke="#171717" stroke-width="3" stroke-linecap="round" stroke-linejoin="round"/>
<path d="M695.381 378.959L680.597 369.019" stroke="white" stroke-width="3" stroke-linecap="round" stroke-linejoin="round"/>
<path d="M692.738 363.088C688.073 370.076 684.878 377.939 683.346 386.2" stroke="white" stroke-width="3" stroke-linecap="round" stroke-linejoin="round"/>
<path d="M196.746 315.743C196.957 306.754 196.09 295.85 188.077 291.772C180.231 287.779 170.777 293.361 165.126 300.11C160.349 305.81 156.708 312.727 156.116 320.144C155.444 328.578 158.731 336.844 162.888 344.215C168.445 354.068 175.612 362.915 181.737 372.42C187.862 381.925 193.037 392.445 193.892 403.72C194.747 414.995 190.556 427.173 181.185 433.509C176.547 436.502 171.085 437.959 165.572 437.671C160.06 437.384 154.778 435.368 150.477 431.909C144.377 426.784 141.361 416.38 147.338 411.109C149.471 409.43 152.007 408.338 154.693 407.943C164.593 405.95 176.971 409.267 180.115 418.866C182.087 424.886 179.781 431.523 176.361 436.857C172.941 442.191 168.423 446.778 165.261 452.269C162.515 457.038 160.87 462.36 160.447 467.847C160.025 473.334 160.834 478.846 162.817 483.979C164.8 489.113 167.907 493.737 171.908 497.515C175.91 501.293 180.706 504.127 185.945 505.812" stroke="#171717" stroke-width="3" stroke-linecap="round" stroke-linejoin="round"/>
<path d="M138.511 510.9C133.866 505.498 130.064 499.426 127.234 492.888" stroke="#171717" stroke-width="3" stroke-linecap="round" stroke-linejoin="round"/>
<path d="M122.629 508.435C129.389 505.066 134.999 499.772 138.754 493.219" stroke="#171717" stroke-width="3" stroke-linecap="round" stroke-linejoin="round"/>
<path d="M182.199 247.36C178.501 241.569 174.695 235.848 170.781 230.198" stroke="white" stroke-width="3" stroke-linecap="round" stroke-linejoin="round"/>
<path d="M168.758 245.049C168.987 245.11 168.622 245.459 168.485 245.266C168.348 245.073 168.499 244.811 168.646 244.625C172.189 240.146 176.279 236.13 180.821 232.669C180.872 232.632 180.926 232.6 180.984 232.576" stroke="white" stroke-width="3" stroke-linecap="round" stroke-linejoin="round"/>
<path d="M454.178 192.938C452.983 192.104 451.584 191.611 450.13 191.509C448.676 191.407 447.222 191.701 445.922 192.36C443.333 193.722 441.22 195.842 439.866 198.436C438.491 200.836 437.525 203.709 438.334 206.355C438.794 207.707 439.573 208.929 440.604 209.917C444.635 214.009 451.443 215.217 456.441 212.384C461.439 209.551 463.888 202.744 461.473 197.533C460.859 196.177 459.948 194.978 458.806 194.023C457.665 193.069 456.323 192.384 454.88 192.02" stroke="#171717" stroke-width="3" stroke-linecap="round" stroke-linejoin="round"/>
<path d="M413.957 131.741C412.619 126.858 410.906 122.086 408.834 117.467L403.6 130.69C399.323 130.855 395.105 131.748 391.128 133.331L400.315 138.376C400.529 138.43 400.725 138.537 400.887 138.687C401.048 138.837 401.169 139.025 401.239 139.235C401.308 139.444 401.325 139.667 401.285 139.884C401.246 140.101 401.153 140.304 401.015 140.476L396.452 150.447C400.396 148.37 404.125 145.909 407.585 143.1L415.077 151.956C414.817 148.289 414.557 144.622 414.296 140.956C416.469 141.713 418.854 140.686 420.767 139.406C422.68 138.126 424.482 136.536 426.718 135.991C422.046 134.969 417.622 133.035 413.7 130.3" stroke="#171717" stroke-width="3" stroke-linecap="round" stroke-linejoin="round"/>
<path d="M227.584 125.515C215.458 136.084 202.492 145.649 188.814 154.115C184.204 151.829 180.366 148.241 177.774 143.795C171.494 132.735 174.504 117.275 184.494 109.395C187.856 106.752 191.786 104.927 195.974 104.065C204.714 102.275 214.024 105.345 220.594 111.305C224.301 114.595 227.028 118.845 228.474 123.585L229.044 124.225C228.564 124.665 228.074 125.1 227.584 125.515Z" fill="white" stroke="white" stroke-width="3" stroke-miterlimit="10"/>
<path d="M227.584 125.515C229.864 137.765 222.424 151.185 210.774 155.635C207.208 156.912 203.415 157.437 199.635 157.175C195.856 156.914 192.171 155.871 188.814 154.115C202.492 145.648 215.458 136.083 227.584 125.515V125.515Z" fill="white" stroke="white" stroke-width="3" stroke-miterlimit="10"/>
<path d="M228.475 123.585C227.028 118.845 224.301 114.595 220.595 111.305C214.025 105.345 204.715 102.275 195.975 104.065C191.787 104.929 187.859 106.755 184.5 109.4C174.509 117.28 171.5 132.74 177.78 143.8C180.37 148.246 184.209 151.834 188.819 154.12C192.175 155.877 195.86 156.919 199.64 157.181C203.42 157.442 207.213 156.918 210.78 155.64C222.429 151.19 229.869 137.77 227.589 125.52C227.559 125.28 227.509 125.05 227.459 124.81" stroke="#171717" stroke-width="3" stroke-miterlimit="10"/>
<path d="M220.714 111.165C225.678 107.317 231.384 104.537 237.474 103C239.094 102.6 240.894 102.31 242.334 103.14C244.174 104.2 244.654 106.77 243.984 108.78C243.15 110.741 241.865 112.478 240.234 113.85C236.594 117.41 232.864 120.87 229.044 124.23C228.564 124.67 228.074 125.1 227.584 125.52C215.458 136.089 202.492 145.654 188.814 154.12C187.764 154.78 186.704 155.42 185.644 156.06C180.874 158.93 175.184 161.75 169.974 159.8C169.17 159.552 168.464 159.059 167.954 158.39C167.134 157.15 167.544 155.48 168.144 154.12C169.857 150.276 172.774 147.093 176.454 145.05" stroke="#171717" stroke-width="3" stroke-miterlimit="10"/>
<path d="M707.635 565.351C707.505 565.933 707.375 566.515 707.243 567.096C707.394 560.768 707.351 554.438 707.115 548.107C703.902 552.455 700.446 556.617 696.763 560.573C692.822 558.887 688.721 557.601 684.522 556.732C686.534 560.804 688.756 564.769 691.18 568.609L678.527 578.25L694.196 577.276C694.398 577.224 694.609 577.213 694.815 577.246C695.021 577.278 695.218 577.354 695.393 577.466C695.569 577.579 695.719 577.727 695.834 577.901C695.95 578.075 696.028 578.271 696.063 578.476C697.863 582.836 699.666 587.196 701.47 591.555C703.288 586.846 704.578 581.949 705.318 576.955C710.592 576.936 715.859 576.683 721.118 576.197C716.039 573.35 711.288 569.953 706.949 566.068" stroke="#171717" stroke-width="3" stroke-linecap="round" stroke-linejoin="round"/>
<path d="M541.514 429.585C542.022 439.944 542.529 450.303 543.035 460.662" stroke="#171717" stroke-miterlimit="10"/>
<path d="M543.833 559.043C545.094 569.843 543.526 580.757 541.961 591.521C540.82 599.367 539.68 607.213 538.539 615.059" stroke="#171717" stroke-miterlimit="10"/>
<path d="M544.49 597.636C541.613 596.987 538.688 596.575 535.743 596.402L536.693 596.108" stroke="#171717" stroke-miterlimit="10"/>
<path d="M547.277 580.871C544.089 579.482 540.601 578.925 537.139 579.25L538.092 578.773" stroke="#171717" stroke-miterlimit="10"/>
<path d="M549.062 564.712C545.47 564.521 541.869 564.814 538.355 565.582C538.188 565.619 537.984 565.695 537.971 565.866C537.958 566.037 538.32 566.02 538.227 565.876" stroke="#171717" stroke-miterlimit="10"/>
<path d="M547.234 451.287L537.46 451.697C537.267 451.705 537.022 451.68 536.96 451.497C536.898 451.314 537.308 451.249 537.231 451.426" stroke="#171717" stroke-miterlimit="10"/>
<path d="M546.566 438.501C543.146 438.421 539.726 438.482 536.308 438.683" stroke="#171717" stroke-miterlimit="10"/>
<path d="M596.421 707.107C595.804 706.431 595.002 705.952 594.114 705.73C593.227 705.509 592.294 705.554 591.432 705.861C590.63 706.172 589.921 706.683 589.373 707.347C588.494 708.455 588.06 709.852 588.154 711.264C588.249 712.675 588.866 714.001 589.886 714.983C590.975 715.883 592.372 716.325 593.782 716.215C595.191 716.104 596.502 715.449 597.438 714.39C597.854 713.828 598.152 713.188 598.316 712.508C598.48 711.829 598.506 711.123 598.392 710.434C598.279 709.744 598.027 709.084 597.653 708.493C597.28 707.903 596.791 707.393 596.217 706.995" stroke="#171717" stroke-miterlimit="10"/>
<path d="M564.691 678.157L569.463 670.852L562.683 667.177C562.412 666.985 562.079 666.9 561.749 666.937C561.394 667.026 561.181 667.38 561.01 667.704C559.553 670.474 558.401 673.394 557.575 676.412L562.302 678.263C562.601 678.436 562.937 678.536 563.282 678.555C563.627 678.575 563.971 678.514 564.288 678.376" stroke="#171717" stroke-miterlimit="10"/>
<path d="M586.061 616.825C585.548 616.202 584.548 616.513 583.837 616.893C581.905 617.762 580.258 619.162 579.089 620.929C578.056 622.765 578.127 625.373 579.761 626.703C580.327 627.143 580.993 627.438 581.7 627.563C583.099 627.839 584.55 627.606 585.791 626.904C587.032 626.202 587.98 625.078 588.463 623.737C588.947 622.396 588.933 620.925 588.425 619.593C587.917 618.261 586.948 617.155 585.694 616.477" stroke="#171717" stroke-miterlimit="10"/>
<path d="M518.54 653.081L514.64 650.126C514.427 649.926 514.154 649.801 513.863 649.771C513.672 649.804 513.492 649.877 513.332 649.986C513.173 650.095 513.039 650.237 512.939 650.402C511.559 652.107 510.181 653.812 508.803 655.516C511.484 657.218 513.966 659.213 516.203 661.466L521.412 656.466C520.545 655.031 519.405 653.779 518.056 652.784" stroke="#171717" stroke-miterlimit="10"/>
<path d="M469.256 698.266C468.205 698.442 467.236 698.943 466.484 699.697C465.732 700.451 465.235 701.422 465.062 702.473C464.956 703.165 465.015 703.872 465.232 704.538C465.449 705.203 465.819 705.808 466.313 706.304C466.819 706.789 467.453 707.118 468.14 707.254C468.827 707.39 469.538 707.327 470.191 707.072C470.948 706.699 471.608 706.153 472.118 705.479C472.876 704.646 473.425 703.643 473.718 702.555C473.886 701.798 473.859 701.011 473.639 700.267C473.419 699.523 473.013 698.848 472.46 698.304C471.907 697.76 471.225 697.366 470.477 697.159C469.73 696.951 468.942 696.937 468.188 697.118" stroke="#171717" stroke-miterlimit="10"/>
<path d="M433.3 671.951C433.123 675.623 433.259 679.303 433.707 682.951C436.362 682.416 438.982 681.715 441.55 680.851C442.131 680.734 442.682 680.496 443.167 680.154C443.652 679.812 444.06 679.373 444.366 678.864C444.634 677.938 444.59 676.95 444.242 676.051L443.504 673.323C443.087 671.781 442.36 669.951 440.776 669.739C439.796 669.758 438.84 670.043 438.009 670.562C436.399 671.264 434.614 671.458 432.891 671.119" stroke="#171717" stroke-miterlimit="10"/>
<path d="M515.524 583.053C514.771 582.999 514.014 583.106 513.306 583.366C512.597 583.627 511.952 584.035 511.413 584.564C510.874 585.093 510.453 585.731 510.179 586.434C509.905 587.138 509.784 587.892 509.824 588.646C509.94 589.395 510.205 590.113 510.604 590.757C511.003 591.402 511.528 591.959 512.147 592.396C512.766 592.833 513.467 593.142 514.208 593.302C514.949 593.463 515.714 593.473 516.459 593.331C517.73 593.041 518.859 592.315 519.651 591.28C520.444 590.244 520.849 588.965 520.797 587.662C520.745 586.359 520.239 585.116 519.367 584.147C518.495 583.178 517.312 582.544 516.022 582.356C515.511 582.281 514.795 582.881 515.261 583.103" stroke="#171717" stroke-miterlimit="10"/>
<path d="M599.147 567.167C595.441 567.003 591.734 567.47 588.186 568.55L588.654 581.128L599.511 579.878" stroke="#171717" stroke-miterlimit="10"/>
<path d="M461.865 498.973C461.07 498.863 460.26 498.991 459.538 499.342C458.816 499.692 458.215 500.25 457.811 500.943C457.423 501.645 457.195 502.424 457.141 503.225C457.087 504.025 457.21 504.827 457.5 505.575C457.636 506.037 457.908 506.447 458.282 506.751C458.696 507 459.175 507.122 459.658 507.102C461.899 507.156 464.316 506.072 465.169 504.002C466.022 501.932 464.549 499.064 462.307 499.089C461.979 499.089 461.602 499.136 461.369 498.905C461.136 498.674 461.436 498.135 461.686 498.349" stroke="#171717" stroke-miterlimit="10"/>
<path d="M448.308 474.1C450.711 476.629 452.936 479.322 454.968 482.159C453.064 484.336 450.967 486.337 448.703 488.137C448.594 488.247 448.448 488.313 448.294 488.324C448.105 488.314 447.969 488.146 447.858 487.993L442.888 481.134C444.315 478.759 446.16 476.662 448.333 474.944" stroke="#171717" stroke-miterlimit="10"/>
<path d="M517.361 445.079C516.359 444.757 515.271 444.836 514.327 445.301C513.382 445.765 512.655 446.578 512.299 447.569C512.157 448.17 512.147 448.796 512.269 449.402C512.39 450.008 512.641 450.581 513.004 451.082C513.366 451.583 513.832 452 514.371 452.304C514.909 452.609 515.506 452.794 516.122 452.848C517.378 452.834 518.578 452.328 519.465 451.44C520.353 450.551 520.857 449.35 520.869 448.095C520.837 445.702 518.412 443.405 516.128 444.122" stroke="#171717" stroke-miterlimit="10"/>
<path d="M610.276 443.467C612.176 441.095 614.076 438.722 615.976 436.35L621.66 440.45C621.747 440.482 621.823 440.537 621.883 440.608C621.942 440.679 621.982 440.764 621.999 440.855C622.016 440.946 622.009 441.04 621.979 441.127C621.949 441.215 621.897 441.293 621.827 441.355L617.297 448.124C615.445 446.212 613.36 444.54 611.092 443.146C610.9 443.028 610.677 442.839 610.75 442.625C610.823 442.411 611.23 442.691 611.015 442.758" stroke="#171717" stroke-miterlimit="10"/>
<path d="M673.513 448.356C672.609 447.852 671.544 447.72 670.544 447.989C669.544 448.257 668.689 448.906 668.159 449.795C667.694 450.721 667.573 451.781 667.816 452.788C668.059 453.795 668.651 454.684 669.487 455.295C670.356 455.863 671.383 456.139 672.419 456.084C673.455 456.028 674.447 455.644 675.25 454.987C676.084 454.272 676.658 453.302 676.883 452.227C677.108 451.152 676.971 450.033 676.494 449.044C676.168 448.435 675.712 447.906 675.158 447.493C674.604 447.081 673.966 446.795 673.289 446.657" stroke="#171717" stroke-miterlimit="10"/>
<path d="M523.917 603.4C521.59 603.754 519.312 604.377 517.129 605.257C517.529 608.439 517.927 611.621 518.322 614.803L526.902 613.134C527.097 613.145 527.292 613.102 527.464 613.009C527.636 612.916 527.78 612.778 527.879 612.609C527.977 612.44 528.028 612.248 528.024 612.052C528.021 611.856 527.964 611.666 527.859 611.5L525.873 603.935C525.482 603.771 525.047 603.741 524.637 603.85C524.227 603.958 523.864 604.199 523.605 604.535" stroke="#171717" stroke-miterlimit="10"/>
<path d="M377.263 309.901C377.896 310.395 378.31 311.118 378.417 311.914C378.525 312.71 378.317 313.516 377.837 314.161C377.358 314.805 376.646 315.237 375.853 315.364C375.06 315.49 374.248 315.302 373.592 314.838C372.936 314.374 372.488 313.673 372.342 312.883C372.196 312.093 372.365 311.277 372.813 310.61C373.261 309.943 373.951 309.478 374.737 309.313C375.524 309.149 376.343 309.298 377.021 309.73" stroke="#171717" stroke-miterlimit="10"/>
<path d="M234.824 462.467C234.203 462.096 233.482 461.93 232.762 461.991C232.042 462.052 231.36 462.339 230.812 462.809C230.263 463.279 229.876 463.91 229.706 464.612C229.535 465.314 229.59 466.052 229.861 466.722C230.133 467.391 230.608 467.958 231.22 468.343C231.831 468.728 232.548 468.911 233.27 468.866C233.991 468.821 234.68 468.551 235.239 468.093C235.798 467.635 236.199 467.014 236.385 466.316C236.545 465.498 236.475 464.652 236.184 463.872C235.894 463.092 235.393 462.407 234.738 461.893" stroke="#171717" stroke-miterlimit="10"/>
<path d="M175.61 609.688C175.71 610.062 175.183 610.242 174.81 610.344C173.139 610.797 172.643 613.308 173.859 614.544C174.515 615.111 175.365 615.401 176.231 615.353C177.097 615.305 177.911 614.922 178.5 614.286C179.004 613.742 179.32 613.05 179.402 612.313C179.483 611.576 179.326 610.832 178.953 610.191C178.542 609.575 177.91 609.14 177.188 608.975C176.466 608.811 175.709 608.93 175.072 609.308" stroke="#171717" stroke-miterlimit="10"/>
<path d="M148.123 661.162C147.558 661.444 147.079 661.873 146.736 662.403C146.392 662.933 146.197 663.546 146.171 664.177C146.175 664.808 146.413 665.414 146.839 665.879C147.265 666.344 147.849 666.634 148.477 666.693C149.443 666.611 150.34 666.156 150.977 665.425C151.886 664.554 152.711 663.201 152.083 662.111C151.737 661.623 151.261 661.242 150.71 661.011C150.199 660.687 149.618 660.488 149.016 660.43C148.715 660.409 148.415 660.493 148.168 660.666C147.92 660.839 147.74 661.092 147.656 661.382" stroke="#171717" stroke-miterlimit="10"/>
<path d="M211.309 718.387C210.867 718.073 210.341 717.901 209.799 717.895C209.258 717.888 208.727 718.047 208.278 718.35C207.632 718.765 207.156 719.399 206.937 720.136C206.718 720.873 206.77 721.664 207.085 722.365C207.4 723.066 207.955 723.631 208.651 723.958C209.347 724.284 210.137 724.35 210.877 724.144C211.617 723.937 212.259 723.472 212.686 722.833C213.112 722.194 213.295 721.423 213.202 720.66C213.108 719.897 212.744 719.193 212.176 718.676C211.607 718.158 210.872 717.862 210.104 717.841" stroke="#171717" stroke-miterlimit="10"/>
<path d="M194.576 759.741C194.236 759.605 193.873 759.539 193.507 759.547C193.141 759.556 192.781 759.639 192.448 759.79C192.115 759.942 191.816 760.16 191.57 760.431C191.324 760.702 191.136 761.02 191.017 761.366C190.831 762.084 190.912 762.844 191.245 763.507C191.578 764.169 192.14 764.688 192.827 764.966C193.528 765.207 194.288 765.22 194.998 765.003C195.707 764.787 196.33 764.351 196.777 763.759C197.107 763.338 197.321 762.838 197.398 762.309C197.474 761.779 197.409 761.239 197.211 760.742C196.991 760.255 196.602 759.864 196.116 759.641C195.631 759.417 195.081 759.377 194.568 759.526" stroke="#171717" stroke-miterlimit="10"/>
<path d="M436.364 735.285C435.996 735.161 435.605 735.123 435.22 735.174C434.836 735.226 434.468 735.366 434.146 735.582C433.824 735.799 433.556 736.087 433.363 736.424C433.171 736.76 433.058 737.137 433.034 737.525C433.057 737.915 433.159 738.296 433.334 738.646C433.51 738.995 433.755 739.305 434.055 739.555C434.355 739.806 434.703 739.993 435.078 740.104C435.453 740.215 435.846 740.248 436.234 740.202C437.012 740.042 437.706 739.608 438.189 738.979C438.672 738.349 438.913 737.567 438.866 736.775C438.845 736.351 438.72 735.939 438.504 735.575C438.183 735.103 437.689 734.777 437.129 734.668C436.569 734.558 435.989 734.673 435.513 734.988" stroke="#171717" stroke-miterlimit="10"/>
<path d="M694.352 508.805C679.28 496.95 655.568 500.768 642.099 514.417C628.63 528.066 624.542 549.017 627.755 567.917C630.968 586.817 640.596 604.028 651.487 619.811C657.953 629.18 665.961 638.874 677.159 640.921C688.357 642.968 701.607 632.021 697.252 621.502C693.443 612.302 679.052 611.831 672.208 619.066C665.364 626.301 664.963 637.666 667.687 647.248C670.411 656.83 675.732 665.448 679.187 674.79C682.642 684.132 684.06 695.072 679.076 703.69C674.092 712.308 660.839 716.23 653.823 709.163" stroke="white" stroke-width="3" stroke-linecap="round" stroke-linejoin="round"/>
<path d="M557.612 158.753C557.444 159.502 557.276 160.251 557.107 161.001C557.301 152.85 557.246 144.697 556.943 136.544C552.804 142.142 548.353 147.503 543.611 152.6C538.534 150.429 533.252 148.772 527.845 147.653C530.436 152.898 533.298 158.005 536.42 162.953L520.12 175.37L540.301 174.115C540.561 174.047 540.832 174.035 541.097 174.077C541.362 174.12 541.615 174.217 541.841 174.362C542.066 174.508 542.259 174.698 542.407 174.922C542.556 175.146 542.656 175.398 542.701 175.663L549.665 192.508C552.006 186.443 553.668 180.138 554.621 173.708C561.414 173.684 568.197 173.358 574.969 172.731C568.427 169.063 562.306 164.688 556.718 159.685" stroke="white" stroke-width="3" stroke-linecap="round" stroke-linejoin="round"/>
<path d="M658.354 122.108C675.384 126.252 693.246 125.422 709.818 119.716" stroke="#171717" stroke-width="3" stroke-linecap="round" stroke-linejoin="round"/>
<g opacity="0.1">
<path d="M309.465 141.113C268.151 149.422 253.019 193.132 241.203 228.453C228.053 267.736 218.439 308.116 212.475 349.111C200.492 431.372 202.489 515.067 218.382 596.664C227.423 642.621 240.687 687.645 258.005 731.164C263.355 744.657 282.265 736.971 276.511 723.364C245.611 650.277 228.223 571.469 223.965 492.301C219.677 412.575 229.116 333.161 249.743 256.127C255.419 234.927 261.309 212.99 270.43 192.975C278.67 174.893 291.919 156.281 312.082 150.609C318.233 148.879 315.63 139.877 309.465 141.117V141.113Z" fill="#171717"/>
</g>
<g opacity="0.1">
<path d="M171.06 795.002C170.28 801.265 177.227 805.321 182.432 806.479C188.101 807.775 194.051 806.882 199.089 803.979C211.774 796.431 214.554 781.363 215.466 767.83C217.232 741.63 222.686 715.939 240.252 695.523C246.74 687.983 235.665 676.959 229.314 684.585C214.356 702.547 206.214 723.726 202.981 746.746C202.132 752.794 201.521 758.862 201.081 764.953C200.639 771.008 200.436 777.442 198.016 783.117C196.241 787.281 192.88 791.864 188.006 792.378C183.836 792.818 180.759 789.405 176.659 789.407C173.359 789.407 171.439 791.991 171.064 795.001L171.06 795.002Z" fill="#171717"/>
</g>
<g opacity="0.1">
<path d="M592.697 472.831C598.111 474.331 604.424 472.764 609.938 472.125C615.493 471.482 621.038 470.743 626.594 470.103C638.363 468.747 650.151 467.571 661.957 466.574C685.249 464.608 708.584 463.344 731.962 462.782C742.573 462.519 742.58 445.863 731.962 446.282C708.256 447.219 684.593 448.858 660.974 451.198C649.495 452.345 638.035 453.662 626.594 455.15C620.713 455.914 614.823 456.66 608.963 457.567C603.285 458.446 596.175 458.733 591.263 461.867C586.976 464.601 587.586 471.42 592.696 472.833L592.697 472.831Z" fill="#171717"/>
</g>
<g opacity="0.1">
<path d="M742.278 463.872C740.447 469.782 746.914 473.363 751.413 475.221C757.452 477.643 764.07 478.24 770.444 476.936C781.494 474.654 790.578 466.584 795.561 456.693C798.855 450.155 789.149 444.382 785.685 450.92C783.712 454.635 780.793 457.764 777.224 459.991C773.655 462.218 769.562 463.464 765.357 463.603C760.68 463.851 756.484 462.603 752.08 461.186C748.749 460.113 743.608 459.577 742.28 463.872H742.278Z" fill="#171717"/>
</g>
<g opacity="0.1">
<path d="M533.354 289.904C526.274 289.798 518.505 294.019 512.513 297.458C506.294 301.018 500.555 305.358 495.435 310.371C484.441 321.189 477.108 335.176 474.462 350.371C469.226 380.896 485.971 411.791 516.162 421.149C526.49 424.349 530.975 408.049 520.623 404.967C497.278 398.027 484.974 373.258 488.408 349.995C490.277 337.337 496.894 325.438 505.767 316.351C509.948 312.078 514.631 308.328 519.715 305.182C524.952 301.929 531.059 299.849 535.906 296.069C538.506 294.042 536.206 289.95 533.354 289.907V289.904Z" fill="#171717"/>
</g>
<g opacity="0.1">
<path d="M394.219 669.651C410.646 675.251 429.353 678.167 446.571 674.464C463.157 670.897 479.446 661.628 489.66 647.947C498.781 635.73 502.549 620.375 505.149 605.611C508.462 586.732 510.81 567.697 512.184 548.578C513.797 526.316 514.233 503.991 514.328 481.678C514.348 477.154 510.08 471.889 505.141 472.49C483.166 475.165 463.977 487.278 453.453 507.009C442.978 526.648 442.305 553.145 453.616 572.595C457.357 579.029 466.378 573.394 463.416 566.869C455.581 549.65 455.501 530.521 466.216 514.469C474.626 501.869 490.145 492.616 505.142 490.869L495.949 481.681C495.795 517.881 494.841 554.29 489.181 590.109C487.107 603.233 485.359 617.351 479.448 629.414C473.281 642.002 462.129 650.377 448.921 654.763C440.621 657.519 432.608 658.063 423.921 657.463C419.203 657.136 414.512 656.532 409.821 655.918C405.248 655.342 400.618 655.378 396.055 656.024C388.49 656.957 386.389 666.984 394.21 669.651H394.219Z" fill="#171717"/>
</g>
<g opacity="0.1">
<path d="M449.891 601.363C457.533 596.199 458.543 584.817 455.637 576.738C453.299 570.238 444.003 573.975 446.814 580.458C449.475 586.597 446.906 591.777 445.003 597.605C444.129 600.284 447.502 602.98 449.891 601.363V601.363Z" fill="#171717"/>
</g>
<g opacity="0.1">
<path d="M541.413 615.65C537.668 625.531 539.568 638.293 540.269 648.593C541.058 660.18 541.549 671.799 541.627 683.412C541.886 706.1 540.24 728.77 536.708 751.182C535.869 756.349 538.05 761.625 543.485 763.118C548.058 764.375 554.65 761.557 555.421 756.341C558.953 732.524 560.501 708.455 560.048 684.382C559.828 672.752 559.176 661.145 558.091 649.561C557.571 643.331 556.717 637.133 555.531 630.994C554.431 625.6 552.737 619.094 549.468 614.6C549.012 613.879 548.359 613.303 547.586 612.941C546.813 612.578 545.952 612.445 545.106 612.555C544.259 612.666 543.462 613.016 542.808 613.565C542.154 614.114 541.67 614.838 541.414 615.652L541.413 615.65Z" fill="#171717"/>
</g>
</g>
<defs>
<clipPath id="clip0_36_2740">
<rect width="725" height="767" fill="white" transform="translate(118 97)"/>
</clipPath>
</defs>
</svg>
